<svg width="205" height="40" viewBox="0 0 205 40" fill="none" xmlns="http://www.w3.org/2000/svg">
<path d="M43.6609 34.649C43.6609 32.855 45.0322 31.5872 46.7227 31.5872C47.9733 31.5872 49.0514 32.2168 49.5085 33.3897H48.3269C48.0078 32.7515 47.4386 32.4496 46.7227 32.4496C45.5325 32.4496 44.67 33.2949 44.67 34.649C44.67 36.0031 45.5325 36.8569 46.7227 36.8569C47.4386 36.8569 48.0078 36.5551 48.3269 35.9168H49.5085C49.0514 37.0898 47.9733 37.7108 46.7227 37.7108C45.0322 37.7108 43.6609 36.4516 43.6609 34.649Z" fill="#D0EFFF"/>
<path d="M59.129 34.649C59.129 36.4516 57.7749 37.7194 56.0672 37.7194C54.3767 37.7194 53.0054 36.4516 53.0054 34.649C53.0054 32.855 54.3767 31.5872 56.0672 31.5872C57.7749 31.5872 59.129 32.855 59.129 34.649ZM54.0145 34.649C54.0145 36.0031 54.8769 36.8656 56.0672 36.8656C57.2574 36.8656 58.1199 36.0031 58.1199 34.649C58.1199 33.2949 57.2574 32.4496 56.0672 32.4496C54.8769 32.4496 54.0145 33.2949 54.0145 34.649Z" fill="#D0EFFF"/>
<path d="M66.7118 31.6562H67.695V37.659H66.7118L63.7534 33.1828V37.659H62.7702V31.6562H63.7534L66.7118 36.1238V31.6562Z" fill="#D0EFFF"/>
<path d="M71.6599 37.659V31.6648H75.1874V32.4669H72.6431V34.235H74.6268V35.0371H72.6431V37.659H71.6599Z" fill="#D0EFFF"/>
<path d="M82.0842 31.6562V32.4583H79.7555V34.2177H81.8255V35.0198H79.7555V36.8569H82.0842V37.659H78.7723V31.6562H82.0842Z" fill="#D0EFFF"/>
<path d="M89.1516 33.4587C89.1516 32.855 88.8066 32.4669 88.039 32.4669H86.9522V34.4765H88.039C88.8066 34.4765 89.1516 34.0539 89.1516 33.4587ZM85.969 31.6648H88.039C89.4621 31.6648 90.1607 32.4841 90.1607 33.4587C90.1607 34.166 89.7812 34.925 88.7721 35.1751L90.2555 37.659H89.0826L87.7026 35.2613H86.9522V37.659H85.969V31.6648Z" fill="#D0EFFF"/>
<path d="M97.4041 31.6562V32.4583H95.0754V34.2177H97.1454V35.0198H95.0754V36.8569H97.4041V37.659H94.0922V31.6562H97.4041Z" fill="#D0EFFF"/>
<path d="M105.23 31.6562H106.214V37.659H105.23L102.272 33.1828V37.659H101.289V31.6562H102.272L105.23 36.1238V31.6562Z" fill="#D0EFFF"/>
<path d="M109.851 34.649C109.851 32.855 111.222 31.5872 112.913 31.5872C114.163 31.5872 115.241 32.2168 115.698 33.3897H114.517C114.198 32.7515 113.628 32.4496 112.913 32.4496C111.722 32.4496 110.86 33.2949 110.86 34.649C110.86 36.0031 111.722 36.8569 112.913 36.8569C113.628 36.8569 114.198 36.5551 114.517 35.9168H115.698C115.241 37.0898 114.163 37.7108 112.913 37.7108C111.222 37.7108 109.851 36.4516 109.851 34.649Z" fill="#D0EFFF"/>
<path d="M122.835 31.6562V32.4583H120.506V34.2177H122.576V35.0198H120.506V36.8569H122.835V37.659H119.523V31.6562H122.835Z" fill="#D0EFFF"/>
<rect x="32.6709" y="19.9995" width="32.6708" height="6.66645" rx="3.33323" transform="rotate(-180 32.6709 19.9995)" fill="#D0EFFF"/>
<rect x="19.8171" y="13.3342" width="26.6658" height="6.66645" rx="3.33323" transform="rotate(90 19.8171 13.3342)" fill="#D0EFFF"/>
<rect x="19.863" width="19.9994" height="6.66645" rx="3.33323" transform="rotate(90 19.863 0)" fill="#D0EFFF"/>
<rect x="32.6702" y="40" width="32.6708" height="6.66645" rx="3.33323" transform="rotate(-180 32.6702 40)" fill="#D0EFFF"/>
<rect x="30.9888" y="30.834" width="8.32979" height="8.32979" rx="4.16489" transform="rotate(-180 30.9888 30.834)" fill="#D0EFFF"/>
<rect x="10.3132" y="30.8335" width="8.32979" height="8.32979" rx="4.16489" transform="rotate(-180 10.3132 30.8335)" fill="#D0EFFF"/>
<rect x="10.6963" y="10.8337" width="8.32979" height="8.32979" rx="4.16489" transform="rotate(-180 10.6963 10.8337)" fill="#D0EFFF"/>
<rect x="30.696" y="10.8337" width="8.32979" height="8.32979" rx="4.16489" transform="rotate(-180 30.696 10.8337)" fill="#D0EFFF"/>
<path d="M43.3418 5.32056H57.9111V8.88313H47.8083V13.456H56.5286V17.0185H47.8083V23.931H43.3418V5.32056Z" fill="#D0EFFF"/>
<path d="M64.0814 5.32056V23.931H59.8276V5.32056H64.0814Z" fill="#D0EFFF"/>
<path d="M72.064 24.25C68.5546 24.25 66.1352 21.937 66.1352 17.7364V10.6378H70.389V17.3642C70.389 19.3316 71.4259 20.6077 73.154 20.6077C75.0417 20.6077 76.1583 19.0923 76.1583 17.1515V10.6378H80.4121V23.931H76.1583V22.4422C75.2278 23.5056 73.8984 24.25 72.064 24.25Z" fill="#D0EFFF"/>
<path d="M83.5522 13.9611H81.7443V10.6378H83.5522V7.23478H87.806V10.6378H90.8634V13.9611H87.806V19.172C87.806 20.3418 88.0985 20.9533 89.0822 20.9533C89.5873 20.9533 90.1722 20.847 90.7039 20.6609L91.5015 23.6651C90.4646 24.0905 89.1619 24.2234 88.125 24.2234C84.5093 24.2234 83.5522 22.1763 83.5522 19.1986V13.9611Z" fill="#D0EFFF"/>
<path d="M93.8118 13.9611H92.004V10.6378H93.8118V7.23478H98.0656V10.6378H101.123V13.9611H98.0656V19.172C98.0656 20.3418 98.3581 20.9533 99.3418 20.9533C99.8469 20.9533 100.432 20.847 100.964 20.6609L101.761 23.6651C100.724 24.0905 99.4215 24.2234 98.3847 24.2234C94.7689 24.2234 93.8118 22.1763 93.8118 19.1986V13.9611Z" fill="#D0EFFF"/>
<path d="M102.343 17.2844C102.343 13.4028 104.949 10.3188 109.468 10.3188C114.227 10.3188 116.647 13.8016 116.434 18.0288H106.65C106.89 19.8899 108.219 21.0331 109.894 21.0331C111.276 21.0331 112.393 20.5545 113.244 19.3316L115.796 21.1128C114.866 22.6814 112.712 24.25 109.548 24.25C105.268 24.25 102.343 21.166 102.343 17.2844ZM106.783 15.6626H112.606C112.499 14.3599 111.33 13.3496 109.814 13.3496C108.299 13.3496 107.182 14.2004 106.783 15.6626Z" fill="#D0EFFF"/>
<path d="M118.116 23.931V10.6378H122.37V12.2596C123.38 11.0898 124.816 10.372 126.65 10.372C127.395 10.372 128.166 10.4783 129.176 10.8505L127.979 14.4663C127.474 14.227 126.836 14.0675 126.198 14.0675C124.443 14.0675 122.37 15.1309 122.37 18.1086V23.931H118.116Z" fill="#D0EFFF"/>
<path d="M130.589 5.32056H140.399C145.105 5.32056 147.179 7.52722 147.179 10.1327C147.179 11.9406 146.248 13.4028 144.706 14.1206C146.434 14.5992 147.843 16.1146 147.843 18.4276C147.843 21.618 145.583 23.931 140.957 23.931H130.589V5.32056ZM140.718 16.088H135.055V20.3153H140.665C142.42 20.3153 143.377 19.4911 143.377 18.1618C143.377 16.7793 142.42 16.088 140.718 16.088ZM140.186 8.9363H135.055V12.7913H140.186C142.047 12.7913 142.765 11.9406 142.765 10.8239C142.765 9.70731 141.914 8.9363 140.186 8.9363Z" fill="#D0EFFF"/>
<path d="M157.15 18.6173L161.026 10.6378H165.572L157.551 27.1719L153.004 27.1436L154.899 23.2299L148.342 10.6378H153.07L157.15 18.6173Z" fill="#D0EFFF"/>
<path d="M168.368 13.9611H166.56V10.6378H168.368V7.23478H172.621V10.6378H175.679V13.9611H172.621V19.172C172.621 20.3418 172.914 20.9533 173.898 20.9533C174.403 20.9533 174.988 20.847 175.519 20.6609L176.317 23.6651C175.28 24.0905 173.977 24.2234 172.94 24.2234C169.325 24.2234 168.368 22.1763 168.368 19.1986V13.9611Z" fill="#D0EFFF"/>
<path d="M177.431 17.2844C177.431 13.4028 180.036 10.3188 184.556 10.3188C189.315 10.3188 191.734 13.8016 191.522 18.0288H181.738C181.977 19.8899 183.306 21.0331 184.981 21.0331C186.364 21.0331 187.481 20.5545 188.331 19.3316L190.884 21.1128C189.953 22.6814 187.8 24.25 184.636 24.25C180.355 24.25 177.431 21.166 177.431 17.2844ZM181.871 15.6626H187.693C187.587 14.3599 186.417 13.3496 184.902 13.3496C183.386 13.3496 182.27 14.2004 181.871 15.6626Z" fill="#D0EFFF"/>
<path d="M192.512 22.6814L194.134 20.1026C194.878 20.7141 196.394 21.1926 198.228 21.1926C199.159 21.1926 199.956 20.7672 199.956 20.1557C199.956 18.2681 192.751 18.6403 192.751 14.3599C192.751 11.8342 195.011 10.3188 198.521 10.3188C201.552 10.3188 203.067 11.2759 203.625 11.5949L202.19 14.3067C201.339 13.7484 200.063 13.3496 198.68 13.3496C197.989 13.3496 196.925 13.5092 196.925 14.2802C196.925 16.0083 204.21 15.8487 204.21 20.1292C204.21 22.708 201.791 24.25 198.202 24.25C194.666 24.25 193.15 23.1334 192.512 22.6814Z" fill="#D0EFFF"/>
</svg>
