<svg width="143" height="28" viewBox="0 0 143 28" fill="none" xmlns="http://www.w3.org/2000/svg">
<path d="M30.5625 24.2542C30.5625 22.9985 31.5224 22.111 32.7058 22.111C33.5812 22.111 34.3359 22.5517 34.6558 23.3728H33.8287C33.6053 22.926 33.2069 22.7147 32.7058 22.7147C31.8726 22.7147 31.2689 23.3064 31.2689 24.2542C31.2689 25.2021 31.8726 25.7998 32.7058 25.7998C33.2069 25.7998 33.6053 25.5885 33.8287 25.1417H34.6558C34.3359 25.9628 33.5812 26.3975 32.7058 26.3975C31.5224 26.3975 30.5625 25.516 30.5625 24.2542Z" fill="#187BCD"/>
<path d="M41.3902 24.2542C41.3902 25.516 40.4423 26.4035 39.2469 26.4035C38.0636 26.4035 37.1036 25.516 37.1036 24.2542C37.1036 22.9985 38.0636 22.111 39.2469 22.111C40.4423 22.111 41.3902 22.9985 41.3902 24.2542ZM37.81 24.2542C37.81 25.2021 38.4137 25.8058 39.2469 25.8058C40.0801 25.8058 40.6838 25.2021 40.6838 24.2542C40.6838 23.3064 40.0801 22.7147 39.2469 22.7147C38.4137 22.7147 37.81 23.3064 37.81 24.2542Z" fill="#187BCD"/>
<path d="M46.6981 22.1593H47.3864V26.3613H46.6981L44.6273 23.2279V26.3613H43.939V22.1593H44.6273L46.6981 25.2866V22.1593Z" fill="#187BCD"/>
<path d="M50.1618 26.3613V22.1653H52.6311V22.7268H50.85V23.9644H52.2386V24.5259H50.85V26.3613H50.1618Z" fill="#187BCD"/>
<path d="M57.4589 22.1593V22.7207H55.8288V23.9524H57.2777V24.5138H55.8288V25.7998H57.4589V26.3613H55.1405V22.1593H57.4589Z" fill="#187BCD"/>
<path d="M62.406 23.4211C62.406 22.9985 62.1645 22.7268 61.6271 22.7268H60.8664V24.1335H61.6271C62.1645 24.1335 62.406 23.8377 62.406 23.4211ZM60.1782 22.1653H61.6271C62.6233 22.1653 63.1123 22.7388 63.1123 23.4211C63.1123 23.9161 62.8467 24.4474 62.1403 24.6225L63.1788 26.3613H62.3577L61.3917 24.6829H60.8664V26.3613H60.1782V22.1653Z" fill="#187BCD"/>
<path d="M68.1828 22.1593V22.7207H66.5527V23.9524H68.0016V24.5138H66.5527V25.7998H68.1828V26.3613H65.8644V22.1593H68.1828Z" fill="#187BCD"/>
<path d="M73.6612 22.1593H74.3494V26.3613H73.6612L71.5903 23.2279V26.3613H70.9021V22.1593H71.5903L73.6612 25.2866V22.1593Z" fill="#187BCD"/>
<path d="M76.8954 24.2542C76.8954 22.9985 77.8554 22.111 79.0387 22.111C79.9141 22.111 80.6688 22.5517 80.9888 23.3728H80.1616C79.9382 22.926 79.5398 22.7147 79.0387 22.7147C78.2055 22.7147 77.6018 23.3064 77.6018 24.2542C77.6018 25.2021 78.2055 25.7998 79.0387 25.7998C79.5398 25.7998 79.9382 25.5885 80.1616 25.1417H80.9888C80.6688 25.9628 79.9141 26.3975 79.0387 26.3975C77.8554 26.3975 76.8954 25.516 76.8954 24.2542Z" fill="#187BCD"/>
<path d="M85.9843 22.1593V22.7207H84.3542V23.9524H85.8032V24.5138H84.3542V25.7998H85.9843V26.3613H83.666V22.1593H85.9843Z" fill="#187BCD"/>
<rect x="22.8701" y="13.9995" width="22.8696" height="4.66652" rx="2.33326" transform="rotate(-180 22.8701 13.9995)" fill="#187BCD"/>
<rect x="13.8726" y="9.33386" width="18.6661" height="4.66652" rx="2.33326" transform="rotate(90 13.8726 9.33386)" fill="#187BCD"/>
<rect x="13.9043" width="13.9996" height="4.66652" rx="2.33326" transform="rotate(90 13.9043 0)" fill="#187BCD"/>
<rect x="22.8696" y="28" width="22.8696" height="4.66652" rx="2.33326" transform="rotate(-180 22.8696 28)" fill="#187BCD"/>
<rect x="21.6924" y="21.5839" width="5.83085" height="5.83085" rx="2.91543" transform="rotate(-180 21.6924 21.5839)" fill="#187BCD"/>
<rect x="7.21973" y="21.5835" width="5.83085" height="5.83085" rx="2.91543" transform="rotate(-180 7.21973 21.5835)" fill="#187BCD"/>
<rect x="7.48828" y="7.58362" width="5.83085" height="5.83085" rx="2.91543" transform="rotate(-180 7.48828 7.58362)" fill="#187BCD"/>
<rect x="21.4878" y="7.58362" width="5.83085" height="5.83085" rx="2.91543" transform="rotate(-180 21.4878 7.58362)" fill="#187BCD"/>
<path d="M30.3389 3.72437H40.5374V6.21816H33.4654V9.41916H39.5696V11.913H33.4654V16.7517H30.3389V3.72437Z" fill="#187BCD"/>
<path d="M44.8566 3.72437V16.7517H41.8789V3.72437H44.8566Z" fill="#187BCD"/>
<path d="M50.4444 16.975C47.9878 16.975 46.2943 15.3559 46.2943 12.4154V7.44645H49.2719V12.1549C49.2719 13.5321 49.9977 14.4254 51.2074 14.4254C52.5288 14.4254 53.3104 13.3646 53.3104 12.006V7.44645H56.2881V16.7517H53.3104V15.7095C52.659 16.4539 51.7285 16.975 50.4444 16.975Z" fill="#187BCD"/>
<path d="M58.4861 9.77276H57.2206V7.44645H58.4861V5.06432H61.4638V7.44645H63.604V9.77276H61.4638V13.4204C61.4638 14.2393 61.6685 14.6673 62.3571 14.6673C62.7107 14.6673 63.1201 14.5929 63.4923 14.4626L64.0507 16.5656C63.3249 16.8633 62.4129 16.9564 61.6871 16.9564C59.1561 16.9564 58.4861 15.5234 58.4861 13.439V9.77276Z" fill="#187BCD"/>
<path d="M65.6679 9.77276H64.4024V7.44645H65.6679V5.06432H68.6455V7.44645H70.7858V9.77276H68.6455V13.4204C68.6455 14.2393 68.8503 14.6673 69.5389 14.6673C69.8924 14.6673 70.3019 14.5929 70.6741 14.4626L71.2324 16.5656C70.5066 16.8633 69.5947 16.9564 68.8689 16.9564C66.3379 16.9564 65.6679 15.5234 65.6679 13.439V9.77276Z" fill="#187BCD"/>
<path d="M71.6399 12.0991C71.6399 9.38194 73.4638 7.22313 76.6275 7.22313C79.9588 7.22313 81.6524 9.6611 81.5035 12.6202H74.6548C74.8223 13.9229 75.7528 14.7231 76.9253 14.7231C77.8931 14.7231 78.6747 14.3881 79.2702 13.5321L81.0568 14.779C80.4055 15.877 78.898 16.975 76.6834 16.975C73.6871 16.975 71.6399 14.8162 71.6399 12.0991ZM74.7479 10.9638H78.8236C78.7491 10.0519 77.9303 9.34472 76.8695 9.34472C75.8087 9.34472 75.027 9.94025 74.7479 10.9638Z" fill="#187BCD"/>
<path d="M82.6807 16.7517V7.44645H85.6584V8.58169C86.3656 7.76283 87.3706 7.26035 88.6547 7.26035C89.1758 7.26035 89.7155 7.33479 90.4227 7.59534L89.5852 10.1264C89.2316 9.95887 88.785 9.8472 88.3383 9.8472C87.11 9.8472 85.6584 10.5916 85.6584 12.676V16.7517H82.6807Z" fill="#187BCD"/>
<path d="M91.4116 3.72437H98.2789C101.573 3.72437 103.025 5.26903 103.025 7.09286C103.025 8.35837 102.373 9.38194 101.294 9.88442C102.503 10.2194 103.49 11.2802 103.49 12.8993C103.49 15.1326 101.908 16.7517 98.6697 16.7517H91.4116V3.72437ZM98.5022 11.2616H94.5382V14.2207H98.465C99.6933 14.2207 100.363 13.6437 100.363 12.7132C100.363 11.7455 99.6933 11.2616 98.5022 11.2616ZM98.13 6.25539H94.5382V8.9539H98.13C99.4327 8.9539 99.9352 8.35837 99.9352 7.57673C99.9352 6.79509 99.3397 6.25539 98.13 6.25539Z" fill="#187BCD"/>
<path d="M110.005 13.0321L112.718 7.44645H115.9L110.286 19.0203L107.103 19.0005L108.429 16.2609L103.839 7.44645H107.149L110.005 13.0321Z" fill="#187BCD"/>
<path d="M117.857 9.77276H116.591V7.44645H117.857V5.06432H120.835V7.44645H122.975V9.77276H120.835V13.4204C120.835 14.2393 121.039 14.6673 121.728 14.6673C122.081 14.6673 122.491 14.5929 122.863 14.4626L123.421 16.5656C122.696 16.8633 121.784 16.9564 121.058 16.9564C118.527 16.9564 117.857 15.5234 117.857 13.439V9.77276Z" fill="#187BCD"/>
<path d="M124.201 12.0991C124.201 9.38194 126.025 7.22313 129.189 7.22313C132.52 7.22313 134.214 9.6611 134.065 12.6202H127.216C127.384 13.9229 128.314 14.7231 129.487 14.7231C130.454 14.7231 131.236 14.3881 131.831 13.5321L133.618 14.779C132.967 15.877 131.459 16.975 129.245 16.975C126.248 16.975 124.201 14.8162 124.201 12.0991ZM127.309 10.9638H131.385C131.31 10.0519 130.492 9.34472 129.431 9.34472C128.37 9.34472 127.588 9.94025 127.309 10.9638Z" fill="#187BCD"/>
<path d="M134.758 15.877L135.893 14.0718C136.414 14.4998 137.475 14.8348 138.759 14.8348C139.411 14.8348 139.969 14.537 139.969 14.109C139.969 12.7877 134.926 13.0482 134.926 10.0519C134.926 8.28393 136.507 7.22313 138.964 7.22313C141.086 7.22313 142.146 7.89311 142.537 8.11643L141.532 10.0147C140.937 9.62388 140.043 9.34472 139.076 9.34472C138.592 9.34472 137.847 9.45638 137.847 9.99608C137.847 11.2058 142.947 11.0941 142.947 14.0904C142.947 15.8956 141.253 16.975 138.741 16.975C136.266 16.975 135.205 16.1934 134.758 15.877Z" fill="#187BCD"/>
</svg>
