<svg width="143" height="28" viewBox="0 0 143 28" fill="none" xmlns="http://www.w3.org/2000/svg">
<path d="M30.5627 24.2542C30.5627 22.9985 31.5227 22.111 32.706 22.111C33.5814 22.111 34.3361 22.5517 34.6561 23.3728H33.829C33.6056 22.926 33.2071 22.7147 32.706 22.7147C31.8729 22.7147 31.2691 23.3064 31.2691 24.2542C31.2691 25.2021 31.8729 25.7998 32.706 25.7998C33.2071 25.7998 33.6056 25.5885 33.829 25.1417H34.6561C34.3361 25.9628 33.5814 26.3975 32.706 26.3975C31.5227 26.3975 30.5627 25.516 30.5627 24.2542Z" fill="#D0EFFF"/>
<path d="M41.3904 24.2542C41.3904 25.516 40.4425 26.4035 39.2471 26.4035C38.0638 26.4035 37.1039 25.516 37.1039 24.2542C37.1039 22.9985 38.0638 22.111 39.2471 22.111C40.4425 22.111 41.3904 22.9985 41.3904 24.2542ZM37.8102 24.2542C37.8102 25.2021 38.414 25.8058 39.2471 25.8058C40.0803 25.8058 40.684 25.2021 40.684 24.2542C40.684 23.3064 40.0803 22.7147 39.2471 22.7147C38.414 22.7147 37.8102 23.3064 37.8102 24.2542Z" fill="#D0EFFF"/>
<path d="M46.6984 22.1593H47.3866V26.3613H46.6984L44.6275 23.2279V26.3613H43.9393V22.1593H44.6275L46.6984 25.2866V22.1593Z" fill="#D0EFFF"/>
<path d="M50.162 26.3613V22.1653H52.6313V22.7268H50.8503V23.9644H52.2389V24.5259H50.8503V26.3613H50.162Z" fill="#D0EFFF"/>
<path d="M57.4591 22.1593V22.7207H55.829V23.9524H57.278V24.5138H55.829V25.7998H57.4591V26.3613H55.1407V22.1593H57.4591Z" fill="#D0EFFF"/>
<path d="M62.4062 23.4211C62.4062 22.9985 62.1647 22.7268 61.6274 22.7268H60.8667V24.1335H61.6274C62.1647 24.1335 62.4062 23.8377 62.4062 23.4211ZM60.1784 22.1653H61.6274C62.6236 22.1653 63.1126 22.7388 63.1126 23.4211C63.1126 23.9161 62.8469 24.4474 62.1406 24.6225L63.179 26.3613H62.3579L61.3919 24.6829H60.8667V26.3613H60.1784V22.1653Z" fill="#D0EFFF"/>
<path d="M68.183 22.1593V22.7207H66.5529V23.9524H68.0019V24.5138H66.5529V25.7998H68.183V26.3613H65.8646V22.1593H68.183Z" fill="#D0EFFF"/>
<path d="M73.6614 22.1593H74.3497V26.3613H73.6614L71.5906 23.2279V26.3613H70.9023V22.1593H71.5906L73.6614 25.2866V22.1593Z" fill="#D0EFFF"/>
<path d="M76.8957 24.2542C76.8957 22.9985 77.8556 22.111 79.0389 22.111C79.9143 22.111 80.669 22.5517 80.989 23.3728H80.1619C79.9385 22.926 79.54 22.7147 79.0389 22.7147C78.2058 22.7147 77.602 23.3064 77.602 24.2542C77.602 25.2021 78.2058 25.7998 79.0389 25.7998C79.54 25.7998 79.9385 25.5885 80.1619 25.1417H80.989C80.669 25.9628 79.9143 26.3975 79.0389 26.3975C77.8556 26.3975 76.8957 25.516 76.8957 24.2542Z" fill="#D0EFFF"/>
<path d="M85.9846 22.1593V22.7207H84.3545V23.9524H85.8034V24.5138H84.3545V25.7998H85.9846V26.3613H83.6662V22.1593H85.9846Z" fill="#D0EFFF"/>
<rect x="22.8701" y="13.9995" width="22.8696" height="4.66652" rx="2.33326" transform="rotate(-180 22.8701 13.9995)" fill="#D0EFFF"/>
<rect x="13.8726" y="9.33386" width="18.6661" height="4.66652" rx="2.33326" transform="rotate(90 13.8726 9.33386)" fill="#D0EFFF"/>
<rect x="13.9045" width="13.9996" height="4.66652" rx="2.33326" transform="rotate(90 13.9045 0)" fill="#D0EFFF"/>
<rect x="22.8696" y="28" width="22.8696" height="4.66652" rx="2.33326" transform="rotate(-180 22.8696 28)" fill="#D0EFFF"/>
<rect x="21.6924" y="21.5839" width="5.83085" height="5.83085" rx="2.91543" transform="rotate(-180 21.6924 21.5839)" fill="#D0EFFF"/>
<rect x="7.21948" y="21.5835" width="5.83085" height="5.83085" rx="2.91543" transform="rotate(-180 7.21948 21.5835)" fill="#D0EFFF"/>
<rect x="7.48779" y="7.58362" width="5.83085" height="5.83085" rx="2.91543" transform="rotate(-180 7.48779 7.58362)" fill="#D0EFFF"/>
<rect x="21.4875" y="7.58362" width="5.83085" height="5.83085" rx="2.91543" transform="rotate(-180 21.4875 7.58362)" fill="#D0EFFF"/>
<path d="M30.3391 3.72437H40.5376V6.21816H33.4657V9.41916H39.5699V11.913H33.4657V16.7517H30.3391V3.72437Z" fill="#D0EFFF"/>
<path d="M44.8569 3.72437V16.7517H41.8792V3.72437H44.8569Z" fill="#D0EFFF"/>
<path d="M50.4446 16.975C47.9881 16.975 46.2945 15.3559 46.2945 12.4154V7.44645H49.2722V12.1549C49.2722 13.5321 49.998 14.4254 51.2077 14.4254C52.529 14.4254 53.3106 13.3646 53.3106 12.006V7.44645H56.2883V16.7517H53.3106V15.7095C52.6593 16.4539 51.7288 16.975 50.4446 16.975Z" fill="#D0EFFF"/>
<path d="M58.4864 9.77276H57.2209V7.44645H58.4864V5.06432H61.4641V7.44645H63.6043V9.77276H61.4641V13.4204C61.4641 14.2393 61.6688 14.6673 62.3574 14.6673C62.711 14.6673 63.1204 14.5929 63.4926 14.4626L64.0509 16.5656C63.3251 16.8633 62.4132 16.9564 61.6874 16.9564C59.1564 16.9564 58.4864 15.5234 58.4864 13.439V9.77276Z" fill="#D0EFFF"/>
<path d="M65.6681 9.77276H64.4026V7.44645H65.6681V5.06432H68.6458V7.44645H70.786V9.77276H68.6458V13.4204C68.6458 14.2393 68.8505 14.6673 69.5391 14.6673C69.8927 14.6673 70.3021 14.5929 70.6743 14.4626L71.2326 16.5656C70.5068 16.8633 69.5949 16.9564 68.8691 16.9564C66.3381 16.9564 65.6681 15.5234 65.6681 13.439V9.77276Z" fill="#D0EFFF"/>
<path d="M71.6402 12.0991C71.6402 9.38194 73.464 7.22313 76.6278 7.22313C79.9591 7.22313 81.6526 9.6611 81.5037 12.6202H74.6551C74.8226 13.9229 75.7531 14.7231 76.9256 14.7231C77.8933 14.7231 78.6749 14.3881 79.2705 13.5321L81.0571 14.779C80.4057 15.877 78.8983 16.975 76.6836 16.975C73.6873 16.975 71.6402 14.8162 71.6402 12.0991ZM74.7481 10.9638H78.8238C78.7494 10.0519 77.9305 9.34472 76.8697 9.34472C75.8089 9.34472 75.0273 9.94025 74.7481 10.9638Z" fill="#D0EFFF"/>
<path d="M82.681 16.7517V7.44645H85.6586V8.58169C86.3658 7.76283 87.3708 7.26035 88.6549 7.26035C89.176 7.26035 89.7157 7.33479 90.4229 7.59534L89.5855 10.1264C89.2319 9.95887 88.7852 9.8472 88.3386 9.8472C87.1103 9.8472 85.6586 10.5916 85.6586 12.676V16.7517H82.681Z" fill="#D0EFFF"/>
<path d="M91.4119 3.72437H98.2791C101.573 3.72437 103.025 5.26903 103.025 7.09286C103.025 8.35837 102.373 9.38194 101.294 9.88442C102.504 10.2194 103.49 11.2802 103.49 12.8993C103.49 15.1326 101.908 16.7517 98.67 16.7517H91.4119V3.72437ZM98.5025 11.2616H94.5384V14.2207H98.4652C99.6935 14.2207 100.364 13.6437 100.364 12.7132C100.364 11.7455 99.6935 11.2616 98.5025 11.2616ZM98.1303 6.25539H94.5384V8.9539H98.1303C99.433 8.9539 99.9355 8.35837 99.9355 7.57673C99.9355 6.79509 99.3399 6.25539 98.1303 6.25539Z" fill="#D0EFFF"/>
<path d="M110.005 13.0321L112.718 7.44645H115.901L110.286 19.0203L107.103 19.0005L108.429 16.2609L103.839 7.44645H107.149L110.005 13.0321Z" fill="#D0EFFF"/>
<path d="M117.857 9.77276H116.592V7.44645H117.857V5.06432H120.835V7.44645H122.975V9.77276H120.835V13.4204C120.835 14.2393 121.04 14.6673 121.728 14.6673C122.082 14.6673 122.491 14.5929 122.863 14.4626L123.422 16.5656C122.696 16.8633 121.784 16.9564 121.058 16.9564C118.527 16.9564 117.857 15.5234 117.857 13.439V9.77276Z" fill="#D0EFFF"/>
<path d="M124.201 12.0991C124.201 9.38194 126.025 7.22313 129.189 7.22313C132.52 7.22313 134.214 9.6611 134.065 12.6202H127.216C127.384 13.9229 128.314 14.7231 129.487 14.7231C130.455 14.7231 131.236 14.3881 131.832 13.5321L133.618 14.779C132.967 15.877 131.46 16.975 129.245 16.975C126.249 16.975 124.201 14.8162 124.201 12.0991ZM127.309 10.9638H131.385C131.311 10.0519 130.492 9.34472 129.431 9.34472C128.37 9.34472 127.589 9.94025 127.309 10.9638Z" fill="#D0EFFF"/>
<path d="M134.758 15.877L135.894 14.0718C136.415 14.4998 137.475 14.8348 138.76 14.8348C139.411 14.8348 139.969 14.537 139.969 14.109C139.969 12.7877 134.926 13.0482 134.926 10.0519C134.926 8.28392 136.508 7.22313 138.964 7.22313C141.086 7.22313 142.147 7.89311 142.538 8.11643L141.533 10.0147C140.937 9.62388 140.044 9.34472 139.076 9.34472C138.592 9.34472 137.848 9.45638 137.848 9.99608C137.848 11.2058 142.947 11.0941 142.947 14.0904C142.947 15.8956 141.253 16.975 138.741 16.975C136.266 16.975 135.205 16.1934 134.758 15.877Z" fill="#D0EFFF"/>
</svg>
