<svg width="435" height="414" viewBox="0 0 435 414" fill="none" xmlns="http://www.w3.org/2000/svg">
<path d="M47.9888 245.094L67.146 155.146L95.5514 149.108L149.521 223.513L121.232 229.526L113.883 219.188L79.0213 226.598L76.3942 239.056L47.9888 245.094ZM83.7534 203.264L99.9515 199.821L87.9104 182.997L83.7534 203.264ZM148.319 223.768L130.855 141.604L157.852 135.866L193.544 168.15L185.435 130.002L212.432 124.264L229.897 206.428L202.9 212.167L167.133 179.53L175.316 218.03L148.319 223.768ZM240.759 140.694L217.048 145.733L212.483 124.253L287.017 108.41L291.583 129.891L267.756 134.955L280.654 195.64L253.657 201.378L240.759 140.694ZM314.578 102.552L332.043 184.717L305.046 190.455L287.581 108.291L314.578 102.552ZM379.167 175.927C354.401 181.191 330.651 169.309 325.162 143.486C319.723 117.898 336.839 96.8391 361.254 91.6496C380.151 87.6328 394.415 93.5567 401.66 101.095L386.471 117.941C383.065 114.617 377.113 110.852 367.345 112.805C356.991 114.884 349.465 125.071 352.159 137.748C354.804 150.19 365.396 156.158 375.843 153.938C387.815 151.393 390.818 144.743 391.973 140.94L411.865 149.102C409.865 157.011 400.647 171.361 379.167 175.927ZM426.358 78.7928L443.822 160.957L416.825 166.696L399.361 84.5312L426.358 78.7928ZM76.3121 349.487L58.8475 267.322L101.808 258.191C121.997 253.9 136.579 264.786 140.264 281.546C143.832 298.331 134.913 314.089 114.724 318.381L98.6435 321.799L103.309 343.748L76.3121 349.487ZM104.613 280.045L90.4102 283.064L94.0777 300.319L108.28 297.3C113.68 296.152 115.456 291.235 114.558 287.01C113.635 282.667 110.012 278.897 104.613 280.045ZM138.426 336.284L157.583 246.335L185.989 240.298L239.958 314.703L211.67 320.716L204.32 310.378L169.459 317.788L166.831 330.246L138.426 336.284ZM174.191 294.454L190.389 291.011L178.348 274.187L174.191 294.454ZM237.881 251.718L214.17 256.758L209.605 235.278L284.139 219.435L288.705 240.915L264.877 245.98L277.776 306.664L250.779 312.403L237.881 251.718ZM284.116 219.44L352.078 204.994L356.569 226.122L315.604 234.83L317.675 244.572L352.888 237.087L357.23 257.511L322.016 264.996L324.087 274.738L365.052 266.031L369.543 287.159L301.581 301.604L284.116 219.44ZM367.338 274.132C365.716 266.503 370.824 258.792 379.016 256.928C386.88 255.257 394.993 260.525 396.682 267.895C398.279 275.407 392.633 283.477 384.886 285.124C376.787 286.846 368.959 281.762 367.338 274.132ZM396.691 267.893C395.069 260.264 400.178 252.553 408.369 250.689C416.234 249.018 424.346 254.286 426.036 261.656C427.632 269.168 421.987 277.238 414.24 278.885C406.141 280.606 398.313 275.523 396.691 267.893ZM426.045 261.654C424.423 254.024 429.532 246.314 437.723 244.45C445.587 242.778 453.7 248.047 455.389 255.416C456.986 262.929 451.34 270.999 443.593 272.645C435.494 274.367 427.666 269.283 426.045 261.654Z" fill="#041B36" fill-opacity="0.25"/>
</svg>
