<svg width="21" height="20" viewBox="0 0 21 20" fill="none" xmlns="http://www.w3.org/2000/svg">
<g clip-path="url(#clip0_408_1575)">
<path fill-rule="evenodd" clip-rule="evenodd" d="M9.40998 1.16143C9.03404 0.875572 8.57212 0.725963 8.09998 0.737141H3.06284C2.78926 0.736953 2.51833 0.7907 2.26554 0.895306C2.01275 0.999913 1.78307 1.15333 1.58962 1.34678C1.39617 1.54023 1.24275 1.76991 1.13815 2.0227C1.03354 2.27549 0.979793 2.54642 0.979981 2.82V17.1814C0.979981 17.7338 1.19942 18.2636 1.59004 18.6542C1.98065 19.0448 2.51043 19.2643 3.06284 19.2643H18.1086C18.661 19.2643 19.1907 19.0448 19.5814 18.6542C19.972 18.2636 20.1914 17.7338 20.1914 17.1814V5.55714C20.1914 5.00473 19.972 4.47495 19.5814 4.08434C19.1907 3.69373 18.661 3.47428 18.1086 3.47428H10.46L10.1714 2.32143C10.0573 1.85962 9.78864 1.44934 9.40998 1.16143ZM14.6714 10.8086C14.1031 10.8086 13.558 10.5828 13.1562 10.1809C12.7543 9.77908 12.5286 9.23403 12.5286 8.66571C12.5286 8.09739 12.7543 7.55235 13.1562 7.15048C13.558 6.74862 14.1031 6.52286 14.6714 6.52286C15.2397 6.52286 15.7848 6.74862 16.1866 7.15048C16.5885 7.55235 16.8143 8.09739 16.8143 8.66571C16.8143 9.23403 16.5885 9.77908 16.1866 10.1809C15.7848 10.5828 15.2397 10.8086 14.6714 10.8086ZM8.53141 10.3071L16.34 17.4786H3.06284C2.98403 17.4786 2.90845 17.4473 2.85273 17.3915C2.797 17.3358 2.7657 17.2602 2.7657 17.1814V13.6143L7.45712 10.3071C7.60881 10.1835 7.79854 10.1159 7.99427 10.1159C8.18999 10.1159 8.37972 10.1835 8.53141 10.3071Z" fill="url(#paint0_linear_408_1575)"/>
</g>
<defs>
<linearGradient id="paint0_linear_408_1575" x1="2.21071" y1="6.80096" x2="19.0309" y2="8.50597" gradientUnits="userSpaceOnUse">
<stop stop-color="#1167B1"/>
<stop offset="0.207076" stop-color="#187BCD"/>
<stop offset="0.41926" stop-color="#2A9DF4"/>
<stop offset="0.571303" stop-color="#2A9DF4"/>
<stop offset="0.802679" stop-color="#187BCD"/>
<stop offset="1" stop-color="#1167B1"/>
</linearGradient>
<clipPath id="clip0_408_1575">
<rect width="20" height="20" fill="white" transform="translate(0.585449)"/>
</clipPath>
</defs>
</svg>
