<svg width="30" height="20" viewBox="0 0 30 20" fill="none" xmlns="http://www.w3.org/2000/svg">
<g clip-path="url(#clip0_408_1584)">
<path d="M28.4046 3.11944C28.2415 2.51651 27.9232 1.96683 27.4816 1.52514C27.0399 1.08346 26.4902 0.765179 25.8873 0.602C23.68 0 14.7962 0 14.7962 0C14.7962 0 5.91196 0.0182222 3.70462 0.620222C3.10168 0.783411 2.552 1.10171 2.11034 1.54341C1.66867 1.98512 1.35042 2.53482 1.18729 3.13778C0.519622 7.05978 0.260622 13.036 1.20562 16.8011C1.36878 17.4041 1.68703 17.9537 2.12869 18.3954C2.57036 18.8371 3.12002 19.1554 3.72296 19.3186C5.93029 19.9206 14.8143 19.9206 14.8143 19.9206C14.8143 19.9206 23.6982 19.9206 25.9054 19.3186C26.5084 19.1554 27.058 18.8371 27.4997 18.3954C27.9414 17.9538 28.2597 17.4041 28.4228 16.8011C29.1271 12.8736 29.3441 6.901 28.4046 3.11944Z" fill="#FF0000"/>
<path d="M11.9683 14.2289L19.338 9.96023L11.9683 5.69156V14.2289Z" fill="white"/>
</g>
<defs>
<clipPath id="clip0_408_1584">
<rect width="28.45" height="20" fill="white" transform="translate(0.585449)"/>
</clipPath>
</defs>
</svg>
