<svg width="469" height="414" viewBox="0 0 469 414" fill="none" xmlns="http://www.w3.org/2000/svg">
<mask id="path-1-inside-1_408_501" fill="white">
<path d="M-4.70619 155.98C-29.4729 150.716 -46.3362 130.201 -40.8474 104.378C-35.4084 78.7899 -11.2071 66.5134 13.2075 71.7029C32.1053 75.7197 42.726 86.9329 46.2791 96.7666L25.551 105.978C23.792 101.556 19.8851 95.6955 10.1676 93.5073C-0.136641 91.1944 -11.1559 97.4398 -13.8505 110.117C-16.4951 122.559 -9.24601 132.319 1.2006 134.54C13.1731 137.084 18.6212 132.231 21.2228 129.226L36.0748 144.774C31.0316 151.186 16.7739 160.546 -4.70619 155.98ZM69.4165 171.981C43.3587 166.442 28.4352 143.15 33.4251 119.675C38.4649 95.9643 61.3971 81.5779 87.455 87.1166C113.513 92.6554 128.561 115.36 123.454 138.811C118.389 162.639 95.4744 177.519 69.4165 171.981ZM60.422 125.413C58.0518 136.564 64.3295 146.854 74.3066 148.975C84.2837 151.095 94.2041 144.248 96.4569 133.072C98.8022 122.039 92.4246 112.218 82.5649 110.123C72.5878 108.002 62.7422 114.497 60.422 125.413ZM115.863 180.381L133.327 98.2166L160.324 103.955L175.413 140.899L204.576 113.361L231.573 119.099L214.108 201.264L187.111 195.525L195.394 156.556L165.982 185.268L151.118 147.267L142.86 186.119L115.863 180.381ZM263.855 125.961L246.39 208.126L219.394 202.387L236.858 120.223L263.855 125.961ZM251.714 209.257L269.178 127.093L296.175 132.831L315.65 176.842L323.759 138.694L350.756 144.432L333.291 226.597L306.294 220.858L286.894 176.495L278.711 214.995L251.714 209.257ZM379.264 237.964C354.497 232.699 337.709 211.833 343.198 186.01C348.637 160.421 372.938 147.675 397.352 152.865C416.25 156.882 424.788 165.198 429.864 173.638L410.952 186.426C408.296 182.181 404.03 176.857 394.313 174.669C383.069 172.157 372.889 179.071 370.195 191.748C367.55 204.19 374.02 214.153 385.171 216.523C389.279 217.396 392.598 217.366 395.38 216.976L396.902 209.816L378.943 205.998L383.035 186.748L425.173 195.705L418.113 228.923C412.707 234.153 398.749 242.105 379.264 237.964ZM-71.2868 241.813L-56.0192 224.816C-52.2501 228.439 -44.5695 235.592 -28.8409 238.935C-23.4415 240.083 -19.7206 239.892 -19.1218 237.075C-17.2931 227.895 -66.3337 221.396 -60.1712 192.404C-57.3769 179.258 -43.756 170.008 -19.3415 175.197C3.31243 180.012 12.5218 189.208 16.6856 193.283L1.90231 209.156C-1.39732 205.633 -9.23499 199.796 -23.9072 196.677C-30.5977 195.255 -32.8001 196.382 -33.1245 197.908C-34.7711 205.655 14.6466 212.11 8.39902 240.348C4.93842 256.052 -11.2222 265.131 -34.9325 260.091C-56.6474 255.475 -67.9372 245.101 -71.2868 241.813ZM43.9818 276.987C17.9239 271.448 3.00044 248.157 7.99032 224.681C13.0301 200.971 35.9623 186.584 62.0202 192.123C88.0781 197.662 103.126 220.367 98.019 243.817C92.9543 267.645 70.0396 282.526 43.9818 276.987ZM34.9872 230.419C32.617 241.57 38.8948 251.86 48.8719 253.981C58.849 256.102 68.7693 249.255 71.0222 238.079C73.3674 227.045 66.9898 217.225 57.1301 215.129C47.153 213.008 37.3075 219.503 34.9872 230.419ZM131.68 295.628C105.623 290.089 90.699 266.798 95.6889 243.322C100.729 219.612 123.661 205.225 149.719 210.764C175.777 216.303 190.825 239.008 185.718 262.458C180.653 286.286 157.738 301.167 131.68 295.628ZM122.686 249.06C120.316 260.211 126.593 270.501 136.57 272.622C146.548 274.743 156.468 267.896 158.721 256.72C161.066 245.686 154.688 235.866 144.829 233.77C134.852 231.649 125.006 238.144 122.686 249.06ZM178.127 304.028L195.591 221.864L222.588 227.602L242.063 271.613L250.172 233.465L277.169 239.204L259.704 321.368L232.707 315.63L213.307 271.267L205.123 309.767L178.127 304.028ZM264.847 308.966C266.468 301.337 274.271 296.371 282.513 298C290.377 299.671 295.645 307.784 294.191 315.204C292.594 322.716 284.154 327.792 276.407 326.145C268.308 324.424 263.225 316.596 264.847 308.966ZM294.2 315.206C295.822 307.576 303.625 302.61 311.866 304.239C319.731 305.911 324.999 314.023 323.545 321.443C321.948 328.955 313.508 334.031 305.761 332.385C297.662 330.663 292.578 322.835 294.2 315.206ZM323.554 321.445C325.175 313.815 332.978 308.849 341.22 310.478C349.084 312.15 354.353 320.263 352.898 327.682C351.301 335.194 342.862 340.271 335.115 338.624C327.016 336.902 321.932 329.075 323.554 321.445Z"/>
</mask>
<path d="M-4.70619 155.98C-29.4729 150.716 -46.3362 130.201 -40.8474 104.378C-35.4084 78.7899 -11.2071 66.5134 13.2075 71.7029C32.1053 75.7197 42.726 86.9329 46.2791 96.7666L25.551 105.978C23.792 101.556 19.8851 95.6955 10.1676 93.5073C-0.136641 91.1944 -11.1559 97.4398 -13.8505 110.117C-16.4951 122.559 -9.24601 132.319 1.2006 134.54C13.1731 137.084 18.6212 132.231 21.2228 129.226L36.0748 144.774C31.0316 151.186 16.7739 160.546 -4.70619 155.98ZM69.4165 171.981C43.3587 166.442 28.4352 143.15 33.4251 119.675C38.4649 95.9643 61.3971 81.5779 87.455 87.1166C113.513 92.6554 128.561 115.36 123.454 138.811C118.389 162.639 95.4744 177.519 69.4165 171.981ZM60.422 125.413C58.0518 136.564 64.3295 146.854 74.3066 148.975C84.2837 151.095 94.2041 144.248 96.4569 133.072C98.8022 122.039 92.4246 112.218 82.5649 110.123C72.5878 108.002 62.7422 114.497 60.422 125.413ZM115.863 180.381L133.327 98.2166L160.324 103.955L175.413 140.899L204.576 113.361L231.573 119.099L214.108 201.264L187.111 195.525L195.394 156.556L165.982 185.268L151.118 147.267L142.86 186.119L115.863 180.381ZM263.855 125.961L246.39 208.126L219.394 202.387L236.858 120.223L263.855 125.961ZM251.714 209.257L269.178 127.093L296.175 132.831L315.65 176.842L323.759 138.694L350.756 144.432L333.291 226.597L306.294 220.858L286.894 176.495L278.711 214.995L251.714 209.257ZM379.264 237.964C354.497 232.699 337.709 211.833 343.198 186.01C348.637 160.421 372.938 147.675 397.352 152.865C416.25 156.882 424.788 165.198 429.864 173.638L410.952 186.426C408.296 182.181 404.03 176.857 394.313 174.669C383.069 172.157 372.889 179.071 370.195 191.748C367.55 204.19 374.02 214.153 385.171 216.523C389.279 217.396 392.598 217.366 395.38 216.976L396.902 209.816L378.943 205.998L383.035 186.748L425.173 195.705L418.113 228.923C412.707 234.153 398.749 242.105 379.264 237.964ZM-71.2868 241.813L-56.0192 224.816C-52.2501 228.439 -44.5695 235.592 -28.8409 238.935C-23.4415 240.083 -19.7206 239.892 -19.1218 237.075C-17.2931 227.895 -66.3337 221.396 -60.1712 192.404C-57.3769 179.258 -43.756 170.008 -19.3415 175.197C3.31243 180.012 12.5218 189.208 16.6856 193.283L1.90231 209.156C-1.39732 205.633 -9.23499 199.796 -23.9072 196.677C-30.5977 195.255 -32.8001 196.382 -33.1245 197.908C-34.7711 205.655 14.6466 212.11 8.39902 240.348C4.93842 256.052 -11.2222 265.131 -34.9325 260.091C-56.6474 255.475 -67.9372 245.101 -71.2868 241.813ZM43.9818 276.987C17.9239 271.448 3.00044 248.157 7.99032 224.681C13.0301 200.971 35.9623 186.584 62.0202 192.123C88.0781 197.662 103.126 220.367 98.019 243.817C92.9543 267.645 70.0396 282.526 43.9818 276.987ZM34.9872 230.419C32.617 241.57 38.8948 251.86 48.8719 253.981C58.849 256.102 68.7693 249.255 71.0222 238.079C73.3674 227.045 66.9898 217.225 57.1301 215.129C47.153 213.008 37.3075 219.503 34.9872 230.419ZM131.68 295.628C105.623 290.089 90.699 266.798 95.6889 243.322C100.729 219.612 123.661 205.225 149.719 210.764C175.777 216.303 190.825 239.008 185.718 262.458C180.653 286.286 157.738 301.167 131.68 295.628ZM122.686 249.06C120.316 260.211 126.593 270.501 136.57 272.622C146.548 274.743 156.468 267.896 158.721 256.72C161.066 245.686 154.688 235.866 144.829 233.77C134.852 231.649 125.006 238.144 122.686 249.06ZM178.127 304.028L195.591 221.864L222.588 227.602L242.063 271.613L250.172 233.465L277.169 239.204L259.704 321.368L232.707 315.63L213.307 271.267L205.123 309.767L178.127 304.028ZM264.847 308.966C266.468 301.337 274.271 296.371 282.513 298C290.377 299.671 295.645 307.784 294.191 315.204C292.594 322.716 284.154 327.792 276.407 326.145C268.308 324.424 263.225 316.596 264.847 308.966ZM294.2 315.206C295.822 307.576 303.625 302.61 311.866 304.239C319.731 305.911 324.999 314.023 323.545 321.443C321.948 328.955 313.508 334.031 305.761 332.385C297.662 330.663 292.578 322.835 294.2 315.206ZM323.554 321.445C325.175 313.815 332.978 308.849 341.22 310.478C349.084 312.15 354.353 320.263 352.898 327.682C351.301 335.194 342.862 340.271 335.115 338.624C327.016 336.902 321.932 329.075 323.554 321.445Z" fill="#041B36" fill-opacity="0.25"/>
<path d="M46.2791 96.7666L46.4822 97.2235L46.9076 97.0344L46.7494 96.5966L46.2791 96.7666ZM25.551 105.978L25.0864 106.163L25.2786 106.646L25.754 106.435L25.551 105.978ZM10.1676 93.5073L10.2775 93.0195L10.2772 93.0195L10.1676 93.5073ZM21.2228 129.226L21.5844 128.881L21.2047 128.484L20.8448 128.899L21.2228 129.226ZM36.0748 144.774L36.4678 145.083L36.736 144.742L36.4364 144.429L36.0748 144.774ZM-4.60223 155.491C-29.1537 150.272 -45.7787 129.983 -40.3583 104.482L-41.3364 104.274C-46.8937 130.419 -29.7921 151.159 -4.81015 156.469L-4.60223 155.491ZM-40.3583 104.482C-34.9871 79.2129 -11.0926 67.0489 13.1035 72.1919L13.3114 71.2138C-11.3216 65.9779 -35.8296 78.367 -41.3364 104.274L-40.3583 104.482ZM13.1035 72.1919C31.8504 76.1767 42.3206 87.2821 45.8089 96.9365L46.7494 96.5966C43.1315 86.5838 32.3601 75.2627 13.3114 71.2138L13.1035 72.1919ZM46.0761 96.3096L25.3479 105.521L25.754 106.435L46.4822 97.2235L46.0761 96.3096ZM26.0156 105.793C24.2111 101.257 20.1929 95.2523 10.2775 93.0195L10.0578 93.9951C19.5772 96.1387 23.3729 101.855 25.0864 106.163L26.0156 105.793ZM10.2772 93.0195C-0.305847 90.644 -11.5887 97.0708 -14.3395 110.013L-13.3614 110.221C-10.7232 97.8089 0.0325653 91.7448 10.0581 93.9952L10.2772 93.0195ZM-14.3395 110.013C-17.042 122.727 -9.61816 132.751 1.09664 135.029L1.30456 134.051C-8.87387 131.887 -15.9482 122.391 -13.3614 110.221L-14.3395 110.013ZM1.09664 135.029C7.16501 136.319 11.6225 135.741 14.9112 134.428C18.1971 133.117 20.2717 131.089 21.6008 129.554L20.8448 128.899C19.5723 130.369 17.6221 132.27 14.5405 133.5C11.4615 134.729 7.20872 135.306 1.30456 134.051L1.09664 135.029ZM20.8613 129.572L35.7133 145.119L36.4364 144.429L21.5844 128.881L20.8613 129.572ZM35.6818 144.465C30.7514 150.733 16.6837 160.015 -4.60223 155.491L-4.81015 156.469C16.8641 161.076 31.3117 151.638 36.4678 145.083L35.6818 144.465ZM123.454 138.811L122.965 138.704L122.965 138.707L123.454 138.811ZM96.4569 133.072L95.9678 132.969L95.9668 132.974L96.4569 133.072ZM69.5205 171.492C43.7172 166.007 28.9849 142.969 33.9141 119.779L32.936 119.571C27.8855 143.332 43.0002 166.877 69.3126 172.47L69.5205 171.492ZM33.9141 119.779C38.8911 96.3641 61.5368 82.1187 87.351 87.6057L87.5589 86.6275C61.2574 81.037 38.0387 95.5646 32.936 119.571L33.9141 119.779ZM87.351 87.6057C113.164 93.0924 128.008 115.55 122.965 138.704L123.942 138.917C129.114 115.17 113.862 92.2184 87.5589 86.6275L87.351 87.6057ZM122.965 138.707C117.961 162.248 95.3248 176.977 69.5205 171.492L69.3126 172.47C95.624 178.062 118.817 163.029 123.943 138.915L122.965 138.707ZM59.9329 125.309C57.513 136.694 63.9204 147.278 74.2027 149.464L74.4106 148.486C64.7386 146.43 58.5905 136.434 60.911 125.517L59.9329 125.309ZM74.2027 149.464C84.4844 151.649 94.6461 144.586 96.947 133.171L95.9668 132.974C93.7621 143.911 84.083 150.542 74.4106 148.486L74.2027 149.464ZM96.946 133.176C99.3443 121.893 92.8188 111.791 82.6688 109.634L82.4609 110.612C92.0305 112.646 98.26 122.185 95.9678 132.969L96.946 133.176ZM82.6688 109.634C72.4016 107.451 62.3062 114.143 59.9329 125.309L60.911 125.517C63.1783 114.851 72.7739 108.553 82.4609 110.612L82.6688 109.634ZM115.863 180.381L115.374 180.277L115.27 180.766L115.759 180.87L115.863 180.381ZM133.327 98.2166L133.431 97.7275L132.942 97.6236L132.838 98.1126L133.327 98.2166ZM160.324 103.955L160.787 103.766L160.687 103.521L160.428 103.466L160.324 103.955ZM175.413 140.899L174.95 141.088L175.226 141.764L175.756 141.263L175.413 140.899ZM204.576 113.361L204.68 112.872L204.423 112.817L204.232 112.997L204.576 113.361ZM231.573 119.099L232.062 119.203L232.166 118.714L231.676 118.61L231.573 119.099ZM214.108 201.264L214.004 201.753L214.493 201.857L214.597 201.368L214.108 201.264ZM187.111 195.525L186.622 195.421L186.518 195.91L187.007 196.014L187.111 195.525ZM195.394 156.556L195.883 156.66L196.227 155.045L195.045 156.198L195.394 156.556ZM165.982 185.268L165.516 185.45L165.791 186.153L166.331 185.626L165.982 185.268ZM151.118 147.267L151.584 147.085L150.976 145.531L150.629 147.163L151.118 147.267ZM142.86 186.119L142.756 186.608L143.245 186.712L143.349 186.223L142.86 186.119ZM116.352 180.485L133.816 98.3205L132.838 98.1126L115.374 180.277L116.352 180.485ZM133.223 98.7057L160.22 104.444L160.428 103.466L133.431 97.7275L133.223 98.7057ZM159.861 104.144L174.95 141.088L175.876 140.71L160.787 103.766L159.861 104.144ZM175.756 141.263L204.919 113.724L204.232 112.997L175.07 140.536L175.756 141.263ZM204.472 113.85L231.469 119.588L231.676 118.61L204.68 112.872L204.472 113.85ZM231.083 118.995L213.619 201.16L214.597 201.368L232.062 119.203L231.083 118.995ZM214.212 200.775L187.215 195.036L187.007 196.014L214.004 201.753L214.212 200.775ZM187.6 195.629L195.883 156.66L194.905 156.452L186.622 195.421L187.6 195.629ZM195.045 156.198L165.633 184.91L166.331 185.626L195.744 156.914L195.045 156.198ZM166.448 185.086L151.584 147.085L150.652 147.449L165.516 185.45L166.448 185.086ZM150.629 147.163L142.371 186.015L143.349 186.223L151.607 147.371L150.629 147.163ZM142.964 185.63L115.967 179.892L115.759 180.87L142.756 186.608L142.964 185.63ZM263.855 125.961L264.344 126.065L264.448 125.576L263.959 125.472L263.855 125.961ZM246.39 208.126L246.287 208.615L246.776 208.719L246.88 208.229L246.39 208.126ZM219.394 202.387L218.905 202.283L218.801 202.772L219.29 202.876L219.394 202.387ZM236.858 120.223L236.962 119.734L236.473 119.63L236.369 120.119L236.858 120.223ZM263.366 125.857L245.901 208.022L246.88 208.229L264.344 126.065L263.366 125.857ZM246.494 207.636L219.498 201.898L219.29 202.876L246.287 208.615L246.494 207.636ZM219.883 202.491L237.347 120.327L236.369 120.119L218.905 202.283L219.883 202.491ZM236.754 120.712L263.751 126.45L263.959 125.472L236.962 119.734L236.754 120.712ZM251.714 209.257L251.225 209.153L251.121 209.642L251.61 209.746L251.714 209.257ZM269.178 127.093L269.282 126.604L268.793 126.5L268.689 126.989L269.178 127.093ZM296.175 132.831L296.632 132.629L296.529 132.395L296.279 132.342L296.175 132.831ZM315.65 176.842L315.193 177.044L315.818 178.457L316.139 176.946L315.65 176.842ZM323.759 138.694L323.863 138.205L323.374 138.101L323.27 138.59L323.759 138.694ZM350.756 144.432L351.245 144.536L351.349 144.047L350.86 143.943L350.756 144.432ZM333.291 226.597L333.187 227.086L333.676 227.19L333.78 226.701L333.291 226.597ZM306.294 220.858L305.836 221.059L305.939 221.294L306.19 221.348L306.294 220.858ZM286.894 176.495L287.352 176.295L286.729 174.869L286.405 176.392L286.894 176.495ZM278.711 214.995L278.607 215.484L279.096 215.588L279.2 215.099L278.711 214.995ZM252.203 209.361L269.667 127.197L268.689 126.989L251.225 209.153L252.203 209.361ZM269.074 127.582L296.071 133.32L296.279 132.342L269.282 126.604L269.074 127.582ZM295.718 133.033L315.193 177.044L316.108 176.64L296.632 132.629L295.718 133.033ZM316.139 176.946L324.248 138.798L323.27 138.59L315.161 176.738L316.139 176.946ZM323.655 139.183L350.652 144.922L350.86 143.943L323.863 138.205L323.655 139.183ZM350.267 144.328L332.802 226.493L333.78 226.701L351.245 144.536L350.267 144.328ZM333.395 226.108L306.398 220.369L306.19 221.348L333.187 227.086L333.395 226.108ZM306.753 220.658L287.352 176.295L286.436 176.696L305.836 221.059L306.753 220.658ZM286.405 176.392L278.222 214.891L279.2 215.099L287.383 176.599L286.405 176.392ZM278.815 214.506L251.818 208.768L251.61 209.746L278.607 215.484L278.815 214.506ZM429.864 173.638L430.144 174.052L430.537 173.787L430.292 173.38L429.864 173.638ZM410.952 186.426L410.528 186.691L410.803 187.13L411.232 186.84L410.952 186.426ZM394.313 174.669L394.423 174.181L394.422 174.181L394.313 174.669ZM395.38 216.976L395.449 217.471L395.796 217.422L395.869 217.08L395.38 216.976ZM396.902 209.816L397.391 209.919L397.495 209.43L397.006 209.326L396.902 209.816ZM378.943 205.998L378.454 205.894L378.35 206.383L378.839 206.487L378.943 205.998ZM383.035 186.748L383.139 186.259L382.65 186.155L382.546 186.644L383.035 186.748ZM425.173 195.705L425.662 195.809L425.766 195.32L425.277 195.216L425.173 195.705ZM418.113 228.923L418.46 229.282L418.57 229.176L418.602 229.027L418.113 228.923ZM379.368 237.474C354.822 232.257 338.265 211.62 343.687 186.114L342.709 185.906C337.153 212.045 354.172 233.141 379.16 238.453L379.368 237.474ZM343.687 186.114C349.06 160.837 373.06 148.212 397.249 153.354L397.456 152.376C372.816 147.138 348.214 160.005 342.709 185.906L343.687 186.114ZM397.249 153.354C416.013 157.342 424.432 165.577 429.435 173.896L430.292 173.38C425.144 164.82 416.488 156.421 397.456 152.376L397.249 153.354ZM429.584 173.224L410.672 186.011L411.232 186.84L430.144 174.052L429.584 173.224ZM411.376 186.16C408.678 181.848 404.314 176.409 394.423 174.181L394.203 175.157C403.746 177.306 407.915 182.514 410.528 186.691L411.376 186.16ZM394.422 174.181C382.871 171.6 372.45 178.733 369.706 191.644L370.684 191.852C373.328 179.41 383.268 172.713 394.204 175.157L394.422 174.181ZM369.706 191.644C368.36 197.975 369.327 203.71 372.084 208.175C374.841 212.641 379.367 215.801 385.067 217.012L385.275 216.034C379.824 214.875 375.539 211.868 372.935 207.65C370.33 203.43 369.385 197.963 370.684 191.852L369.706 191.644ZM385.067 217.012C389.235 217.898 392.612 217.869 395.449 217.471L395.311 216.48C392.584 216.863 389.324 216.895 385.275 216.034L385.067 217.012ZM395.869 217.08L397.391 209.919L396.413 209.712L394.891 216.872L395.869 217.08ZM397.006 209.326L379.047 205.509L378.839 206.487L396.798 210.305L397.006 209.326ZM379.432 206.102L383.524 186.852L382.546 186.644L378.454 205.894L379.432 206.102ZM382.931 187.237L425.069 196.194L425.277 195.216L383.139 186.259L382.931 187.237ZM424.684 195.601L417.624 228.819L418.602 229.027L425.662 195.809L424.684 195.601ZM417.765 228.564C412.461 233.695 398.667 241.577 379.368 237.474L379.16 238.453C398.83 242.634 412.953 234.611 418.46 229.282L417.765 228.564ZM-71.2868 241.813L-71.6587 241.479L-71.9784 241.835L-71.6371 242.17L-71.2868 241.813ZM-56.0192 224.816L-55.6728 224.455L-56.0456 224.097L-56.3912 224.482L-56.0192 224.816ZM-19.1218 237.075L-18.6327 237.179L-18.6314 237.173L-19.1218 237.075ZM16.6856 193.283L17.0515 193.624L17.3839 193.267L17.0353 192.925L16.6856 193.283ZM1.9023 209.156L1.53737 209.498L1.90334 209.889L2.2682 209.497L1.9023 209.156ZM8.39902 240.348L7.91083 240.24L7.91074 240.241L8.39902 240.348ZM-70.9148 242.147L-55.6473 225.15L-56.3912 224.482L-71.6587 241.479L-70.9148 242.147ZM-56.3657 225.176C-52.5627 228.832 -44.8013 236.054 -28.9448 239.424L-28.7369 238.446C-44.3377 235.13 -51.9375 228.045 -55.6728 224.455L-56.3657 225.176ZM-28.9448 239.424C-26.2323 240.001 -23.8788 240.257 -22.1057 239.986C-21.2143 239.85 -20.4355 239.576 -19.8298 239.113C-19.2139 238.641 -18.8062 237.995 -18.6327 237.179L-19.6109 236.971C-19.7368 237.564 -20.0188 237.998 -20.4377 238.318C-20.8667 238.647 -21.468 238.877 -22.2565 238.997C-23.8434 239.24 -26.0501 239.017 -28.7369 238.446L-28.9448 239.424ZM-18.6314 237.173C-18.3529 235.774 -19.0677 234.505 -20.2663 233.349C-21.47 232.188 -23.2603 231.042 -25.3884 229.862C-27.5223 228.679 -30.0375 227.44 -32.7077 226.104C-35.3829 224.765 -38.2218 223.326 -41.0248 221.734C-46.638 218.546 -52.0626 214.769 -55.7031 210.02C-59.3277 205.292 -61.1888 199.596 -59.6822 192.508L-60.6603 192.3C-62.2349 199.708 -60.2769 205.697 -56.4967 210.628C-52.7325 215.539 -47.1667 219.396 -41.5186 222.604C-38.6909 224.21 -35.8316 225.659 -33.1551 226.998C-30.4735 228.34 -27.9836 229.566 -25.8734 230.737C-23.7573 231.91 -22.0646 233.004 -20.9605 234.069C-19.8512 235.139 -19.4335 236.081 -19.6122 236.977L-18.6314 237.173ZM-59.6822 192.508C-58.3167 186.084 -54.3115 180.613 -47.6454 177.374C-40.9683 174.13 -31.5804 173.107 -19.4454 175.686L-19.2375 174.708C-31.5171 172.098 -41.1469 173.105 -48.0825 176.475C-55.0291 179.85 -59.2315 185.578 -60.6603 192.3L-59.6822 192.508ZM-19.4454 175.686C3.08434 180.475 12.2125 189.605 16.3359 193.64L17.0353 192.925C12.8311 188.811 3.54053 179.55 -19.2375 174.708L-19.4454 175.686ZM16.3197 192.942L1.53641 208.815L2.2682 209.497L17.0515 193.624L16.3197 192.942ZM2.26724 208.814C-1.1094 205.209 -9.04174 199.326 -23.8033 196.188L-24.0112 197.166C-9.42825 200.266 -1.68524 206.057 1.53737 209.498L2.26724 208.814ZM-23.8033 196.188C-27.172 195.472 -29.4757 195.382 -31.0042 195.697C-32.5544 196.017 -33.3967 196.784 -33.6135 197.804L-32.6354 198.012C-32.5278 197.506 -32.1068 196.946 -30.8021 196.677C-29.4757 196.403 -27.333 196.46 -24.0112 197.166L-23.8033 196.188ZM-33.6135 197.804C-33.8825 199.069 -33.0791 200.191 -31.8746 201.183C-30.6454 202.196 -28.8294 203.215 -26.6748 204.284C-22.3159 206.448 -16.5615 208.826 -10.8742 211.884C-5.20896 214.93 0.258854 218.588 3.92348 223.204C7.57122 227.8 9.436 233.347 7.91083 240.24L8.88721 240.456C10.4858 233.231 8.51622 227.382 4.70672 222.583C0.914118 217.805 -4.69816 214.07 -10.4006 211.004C-16.081 207.949 -21.9818 205.497 -26.2303 203.389C-28.3794 202.322 -30.1052 201.345 -31.2389 200.411C-32.3974 199.457 -32.7781 198.683 -32.6354 198.012L-33.6135 197.804ZM7.91074 240.241C6.214 247.94 1.41029 254.011 -5.89111 257.548C-13.2027 261.09 -23.0514 262.105 -34.8286 259.602L-35.0365 260.58C-23.1033 263.116 -13.0166 262.111 -5.45513 258.448C2.11653 254.78 7.12344 248.46 8.88731 240.456L7.91074 240.241ZM-34.8286 259.602C-56.4202 255.012 -67.6287 244.703 -70.9365 241.456L-71.6371 242.17C-68.2458 245.499 -56.8746 255.938 -35.0365 260.58L-34.8286 259.602ZM98.019 243.817L97.5305 243.711L97.53 243.713L98.019 243.817ZM71.0222 238.079L70.5331 237.975L70.532 237.98L71.0222 238.079ZM44.0857 276.498C18.2824 271.013 3.55018 247.975 8.47939 224.785L7.50125 224.577C2.4507 248.338 17.5655 271.883 43.8778 277.476L44.0857 276.498ZM8.47939 224.785C13.4563 201.371 36.1021 187.125 61.9162 192.612L62.1242 191.634C35.8226 186.043 12.6039 200.571 7.50125 224.577L8.47939 224.785ZM61.9162 192.612C87.7292 198.099 102.573 220.556 97.5305 243.711L98.5076 243.924C103.679 220.177 88.4269 197.225 62.1242 191.634L61.9162 192.612ZM97.53 243.713C92.5261 267.255 69.89 281.983 44.0857 276.498L43.8778 277.476C70.1893 283.069 93.3825 268.035 98.5081 243.921L97.53 243.713ZM34.4981 230.316C32.0783 241.7 38.4856 252.285 48.7679 254.47L48.9758 253.492C39.3039 251.436 33.1557 241.441 35.4763 230.523L34.4981 230.316ZM48.7679 254.47C59.0497 256.656 69.2113 249.593 71.5123 238.178L70.532 237.98C68.3274 248.917 58.6483 255.548 48.9758 253.492L48.7679 254.47ZM71.5112 238.183C73.9095 226.9 67.384 216.797 57.2341 214.64L57.0262 215.618C66.5957 217.652 72.8253 227.191 70.5331 237.975L71.5112 238.183ZM57.2341 214.64C46.9669 212.458 36.8715 219.15 34.4981 230.316L35.4763 230.523C37.7435 219.857 47.3392 213.559 57.0262 215.618L57.2341 214.64ZM185.718 262.458L185.229 262.352L185.229 262.354L185.718 262.458ZM158.721 256.72L158.232 256.616L158.231 256.621L158.721 256.72ZM131.784 295.139C105.981 289.654 91.2488 266.616 96.178 243.426L95.1998 243.218C90.1493 266.979 105.264 290.524 131.576 296.117L131.784 295.139ZM96.178 243.426C101.155 220.011 123.801 205.766 149.615 211.253L149.823 210.275C123.521 204.684 100.302 219.212 95.1998 243.218L96.178 243.426ZM149.615 211.253C175.428 216.74 190.272 239.197 185.229 262.352L186.206 262.565C191.378 238.818 176.126 215.866 149.823 210.275L149.615 211.253ZM185.229 262.354C180.225 285.896 157.589 300.624 131.784 295.139L131.576 296.117C157.888 301.71 181.081 286.676 186.207 262.562L185.229 262.354ZM122.197 248.956C119.777 260.341 126.184 270.926 136.466 273.111L136.674 272.133C127.002 270.077 120.854 260.082 123.175 249.164L122.197 248.956ZM136.466 273.111C146.748 275.297 156.91 268.233 159.211 256.819L158.231 256.621C156.026 267.558 146.347 274.189 136.674 272.133L136.466 273.111ZM159.21 256.824C161.608 245.541 155.083 235.438 144.933 233.281L144.725 234.259C154.294 236.293 160.524 245.832 158.232 256.616L159.21 256.824ZM144.933 233.281C134.665 231.099 124.57 237.791 122.197 248.956L123.175 249.164C125.442 238.498 135.038 232.2 144.725 234.259L144.933 233.281ZM178.127 304.028L177.638 303.924L177.534 304.413L178.023 304.517L178.127 304.028ZM195.591 221.864L195.695 221.375L195.206 221.271L195.102 221.76L195.591 221.864ZM222.588 227.602L223.045 227.4L222.942 227.166L222.692 227.113L222.588 227.602ZM242.063 271.613L241.606 271.816L242.231 273.228L242.552 271.717L242.063 271.613ZM250.172 233.465L250.276 232.976L249.787 232.872L249.683 233.361L250.172 233.465ZM277.169 239.204L277.658 239.308L277.762 238.819L277.273 238.715L277.169 239.204ZM259.704 321.368L259.6 321.857L260.089 321.961L260.193 321.472L259.704 321.368ZM232.707 315.63L232.249 315.83L232.352 316.066L232.603 316.119L232.707 315.63ZM213.307 271.267L213.765 271.067L213.141 269.641L212.818 271.163L213.307 271.267ZM205.123 309.767L205.02 310.256L205.509 310.36L205.613 309.871L205.123 309.767ZM178.616 304.132L196.08 221.968L195.102 221.76L177.638 303.924L178.616 304.132ZM195.487 222.353L222.484 228.091L222.692 227.113L195.695 221.375L195.487 222.353ZM222.131 227.805L241.606 271.816L242.521 271.411L223.045 227.4L222.131 227.805ZM242.552 271.717L250.661 233.569L249.683 233.361L241.574 271.509L242.552 271.717ZM250.068 233.955L277.065 239.693L277.273 238.715L250.276 232.976L250.068 233.955ZM276.68 239.1L259.215 321.264L260.193 321.472L277.658 239.308L276.68 239.1ZM259.808 320.879L232.811 315.141L232.603 316.119L259.6 321.857L259.808 320.879ZM233.165 315.43L213.765 271.067L212.849 271.467L232.249 315.83L233.165 315.43ZM212.818 271.163L204.634 309.663L205.613 309.871L213.796 271.371L212.818 271.163ZM205.227 309.278L178.231 303.539L178.023 304.517L205.02 310.256L205.227 309.278ZM282.513 298L282.617 297.511L282.61 297.509L282.513 298ZM294.191 315.204L294.68 315.308L294.682 315.3L294.191 315.204ZM265.336 309.07C266.896 301.73 274.42 296.91 282.416 298.49L282.61 297.509C274.123 295.832 266.041 300.944 264.357 308.862L265.336 309.07ZM282.409 298.489C290.011 300.105 295.101 307.961 293.7 315.108L294.682 315.3C296.19 307.607 290.743 299.238 282.617 297.511L282.409 298.489ZM293.702 315.1C292.168 322.317 284.014 327.251 276.511 325.656L276.304 326.634C284.295 328.333 293.021 323.115 294.68 315.308L293.702 315.1ZM276.511 325.656C268.672 323.99 263.774 316.419 265.336 309.07L264.357 308.862C262.676 316.772 267.945 324.858 276.304 326.634L276.511 325.656ZM311.866 304.239L311.97 303.75L311.963 303.749L311.866 304.239ZM323.545 321.443L324.034 321.547L324.035 321.539L323.545 321.443ZM294.689 315.31C296.249 307.969 303.774 303.149 311.769 304.73L311.963 303.749C303.476 302.071 295.394 307.183 293.711 315.102L294.689 315.31ZM311.762 304.728C319.365 306.344 324.455 314.201 323.054 321.347L324.035 321.539C325.543 313.846 320.096 305.477 311.97 303.75L311.762 304.728ZM323.055 321.339C321.521 328.556 313.368 333.49 305.865 331.896L305.657 332.874C313.648 334.572 322.374 329.354 324.034 321.547L323.055 321.339ZM305.865 331.896C298.026 330.229 293.127 322.659 294.689 315.31L293.711 315.102C292.03 323.012 297.298 331.097 305.657 332.874L305.865 331.896ZM341.22 310.478L341.324 309.989L341.317 309.988L341.22 310.478ZM352.898 327.682L353.387 327.786L353.389 327.778L352.898 327.682ZM324.043 321.549C325.603 314.209 333.127 309.388 341.123 310.969L341.317 309.988C332.83 308.31 324.748 313.422 323.065 321.341L324.043 321.549ZM341.116 310.967C348.719 312.583 353.808 320.44 352.408 327.586L353.389 327.778C354.897 320.085 349.45 311.716 341.324 309.989L341.116 310.967ZM352.409 327.578C350.875 334.795 342.721 339.73 335.219 338.135L335.011 339.113C343.002 340.812 351.728 335.594 353.387 327.786L352.409 327.578ZM335.219 338.135C327.379 336.469 322.481 328.898 324.043 321.549L323.065 321.341C321.383 329.251 326.652 337.336 335.011 339.113L335.219 338.135Z" fill="url(#paint0_linear_408_501)" mask="url(#path-1-inside-1_408_501)"/>
<defs>
<linearGradient id="paint0_linear_408_501" x1="-17.3996" y1="126.19" x2="364.254" y2="299.158" gradientUnits="userSpaceOnUse">
<stop stop-color="#1167B1"/>
<stop offset="0.207076" stop-color="#187BCD" stop-opacity="0.2"/>
<stop offset="0.41926" stop-color="#2A9DF4" stop-opacity="0"/>
<stop offset="0.571303" stop-color="#2A9DF4" stop-opacity="0"/>
<stop offset="0.802679" stop-color="#187BCD" stop-opacity="0"/>
<stop offset="1" stop-color="#1167B1" stop-opacity="0"/>
</linearGradient>
</defs>
</svg>





<svg width="203" height="163" viewBox="0 0 203 163" fill="none" xmlns="http://www.w3.org/2000/svg">
<mask id="path-1-inside-1_526_1540" fill="white">
<path d="M4.49634 65.824C-6.1258 64.3312 -13.8586 56.16 -12.3021 45.0848C-10.7597 34.1103 -0.894858 28.2069 9.57626 29.6785C17.6813 30.8176 22.5011 35.2425 24.2932 39.2933L15.8056 43.7988C14.9315 41.9818 13.1073 39.6207 8.93596 38.9831C4.51295 38.3101 0.0406817 41.2751 -0.723428 46.7121C-1.47339 52.0483 1.87857 55.9589 6.35899 56.5886C11.4939 57.3103 13.6529 55.0982 14.6635 53.7515L21.3995 59.8831C19.4577 62.7417 13.7089 67.1188 4.49634 65.824ZM36.2939 70.3956C25.118 68.8249 18.123 59.4227 19.538 49.3543C20.9672 39.1852 30.2333 32.4277 41.4092 33.9984C52.5851 35.569 59.6156 44.7196 58.1502 54.7809C56.714 65.0003 47.4698 71.9662 36.2939 70.3956ZM31.1166 50.9815C30.4445 55.764 33.4016 59.9272 37.6807 60.5285C41.9597 61.1299 45.9498 57.9432 46.5716 53.1536C47.2367 48.4215 44.2512 44.4597 40.0225 43.8654C35.7435 43.264 31.7746 46.2997 31.1166 50.9815ZM56.1707 72.573L61.1233 37.3337L72.7019 38.961L80.1702 54.128L91.6808 41.6283L103.259 43.2555L98.3069 78.4949L86.7282 76.8676L89.0772 60.1541L77.4958 73.1573L70.0912 57.5371L67.7493 74.2003L56.1707 72.573ZM117.105 45.2014L112.152 80.4407L100.574 78.8135L105.526 43.5741L117.105 45.2014ZM114.436 80.7616L119.388 45.5223L130.967 47.1495L140.498 65.1733L142.797 48.8122L154.376 50.4395L149.423 85.6788L137.845 84.0515L128.335 65.8767L126.014 82.3889L114.436 80.7616ZM169.188 89.1239C158.565 87.631 150.854 79.3088 152.41 68.2336C153.953 57.2591 163.846 51.1544 174.317 52.626C182.422 53.7651 186.276 57.0275 188.67 60.4442L181.056 66.4072C179.808 64.6917 177.848 62.5681 173.677 61.9305C168.851 61.201 164.753 64.424 163.989 69.8609C163.239 75.1971 166.268 79.2163 171.05 79.8884C172.812 80.1361 174.214 80.0251 175.378 79.778L175.81 76.7071L168.107 75.6246L169.268 67.3686L187.34 69.9085L185.338 84.1553C183.208 86.5254 177.544 90.2983 169.188 89.1239ZM-21.1389 104.31L-15.1891 96.6754C-13.4892 98.0951 -10.0319 100.891 -3.28607 101.839C-0.970349 102.165 0.596509 101.974 0.766311 100.766C1.26783 96.8322 -19.6491 95.5353 -17.9016 83.1008C-17.1091 77.4625 -11.6262 73.1508 -1.15511 74.6224C8.56088 75.9879 12.7246 79.6019 14.6046 81.2009L8.82619 88.3459C7.32763 86.9546 3.84289 84.7194 -2.44985 83.835C-5.31934 83.4317 -6.21679 83.9729 -6.30876 84.6274C-6.77572 87.95 14.2993 89.2178 12.4935 101.336C11.4951 108.075 4.9338 112.389 -5.23526 110.96C-14.5485 109.651 -19.6262 105.6 -21.1389 104.31ZM28.6138 115.768C17.4379 114.198 10.4428 104.795 11.8578 94.727C13.287 84.5579 22.5532 77.8004 33.7291 79.3711C44.905 80.9417 51.9354 90.0923 50.4701 100.154C49.0338 110.373 39.7897 117.339 28.6138 115.768ZM23.4365 96.3542C22.7643 101.137 25.7214 105.3 30.0005 105.901C34.2796 106.503 38.2696 103.316 38.8914 98.5263C39.5565 93.7942 36.5711 89.8324 32.3423 89.2381C28.0633 88.6367 24.0944 91.6724 23.4365 96.3542ZM66.2266 121.054C55.0507 119.484 48.0557 110.081 49.4707 100.013C50.8999 89.844 60.166 83.0865 71.3419 84.6572C82.5178 86.2279 89.5483 95.3784 88.0829 105.44C86.6467 115.659 77.4025 122.625 66.2266 121.054ZM61.0493 101.64C60.3772 106.423 63.3343 110.586 67.6134 111.187C71.8924 111.789 75.8825 108.602 76.5043 103.812C77.1693 99.0803 74.1839 95.1185 69.9552 94.5242C65.6762 93.9228 61.7073 96.9586 61.0493 101.64ZM86.1034 123.232L91.056 87.9925L102.635 89.6198L112.166 107.644L114.465 91.2824L126.044 92.9097L121.091 128.149L109.512 126.522L100.003 108.347L97.682 124.859L86.1034 123.232ZM122.898 122.756C123.358 119.484 126.508 117.154 130.039 117.599C133.412 118.073 135.879 121.346 135.483 124.525C135.03 127.747 131.614 130.141 128.291 129.674C124.818 129.186 122.438 126.028 122.898 122.756ZM135.487 124.525C135.947 121.253 139.098 118.924 142.629 119.369C146.002 119.843 148.468 123.115 148.073 126.294C147.62 129.516 144.203 131.911 140.881 131.444C137.407 130.955 135.027 127.798 135.487 124.525ZM148.077 126.295C148.536 123.022 151.687 120.693 155.218 121.138C158.591 121.612 161.057 124.885 160.662 128.063C160.209 131.285 156.793 133.68 153.47 133.213C149.996 132.725 147.617 129.567 148.077 126.295Z"/>
</mask>
<path d="M4.49634 65.824C-6.1258 64.3312 -13.8586 56.16 -12.3021 45.0848C-10.7597 34.1103 -0.894858 28.2069 9.57626 29.6785C17.6813 30.8176 22.5011 35.2425 24.2932 39.2933L15.8056 43.7988C14.9315 41.9818 13.1073 39.6207 8.93596 38.9831C4.51295 38.3101 0.0406817 41.2751 -0.723428 46.7121C-1.47339 52.0483 1.87857 55.9589 6.35899 56.5886C11.4939 57.3103 13.6529 55.0982 14.6635 53.7515L21.3995 59.8831C19.4577 62.7417 13.7089 67.1188 4.49634 65.824ZM36.2939 70.3956C25.118 68.8249 18.123 59.4227 19.538 49.3543C20.9672 39.1852 30.2333 32.4277 41.4092 33.9984C52.5851 35.569 59.6156 44.7196 58.1502 54.7809C56.714 65.0003 47.4698 71.9662 36.2939 70.3956ZM31.1166 50.9815C30.4445 55.764 33.4016 59.9272 37.6807 60.5285C41.9597 61.1299 45.9498 57.9432 46.5716 53.1536C47.2367 48.4215 44.2512 44.4597 40.0225 43.8654C35.7435 43.264 31.7746 46.2997 31.1166 50.9815ZM56.1707 72.573L61.1233 37.3337L72.7019 38.961L80.1702 54.128L91.6808 41.6283L103.259 43.2555L98.3069 78.4949L86.7282 76.8676L89.0772 60.1541L77.4958 73.1573L70.0912 57.5371L67.7493 74.2003L56.1707 72.573ZM117.105 45.2014L112.152 80.4407L100.574 78.8135L105.526 43.5741L117.105 45.2014ZM114.436 80.7616L119.388 45.5223L130.967 47.1495L140.498 65.1733L142.797 48.8122L154.376 50.4395L149.423 85.6788L137.845 84.0515L128.335 65.8767L126.014 82.3889L114.436 80.7616ZM169.188 89.1239C158.565 87.631 150.854 79.3088 152.41 68.2336C153.953 57.2591 163.846 51.1544 174.317 52.626C182.422 53.7651 186.276 57.0275 188.67 60.4442L181.056 66.4072C179.808 64.6917 177.848 62.5681 173.677 61.9305C168.851 61.201 164.753 64.424 163.989 69.8609C163.239 75.1971 166.268 79.2163 171.05 79.8884C172.812 80.1361 174.214 80.0251 175.378 79.778L175.81 76.7071L168.107 75.6246L169.268 67.3686L187.34 69.9085L185.338 84.1553C183.208 86.5254 177.544 90.2983 169.188 89.1239ZM-21.1389 104.31L-15.1891 96.6754C-13.4892 98.0951 -10.0319 100.891 -3.28607 101.839C-0.970349 102.165 0.596509 101.974 0.766311 100.766C1.26783 96.8322 -19.6491 95.5353 -17.9016 83.1008C-17.1091 77.4625 -11.6262 73.1508 -1.15511 74.6224C8.56088 75.9879 12.7246 79.6019 14.6046 81.2009L8.82619 88.3459C7.32763 86.9546 3.84289 84.7194 -2.44985 83.835C-5.31934 83.4317 -6.21679 83.9729 -6.30876 84.6274C-6.77572 87.95 14.2993 89.2178 12.4935 101.336C11.4951 108.075 4.9338 112.389 -5.23526 110.96C-14.5485 109.651 -19.6262 105.6 -21.1389 104.31ZM28.6138 115.768C17.4379 114.198 10.4428 104.795 11.8578 94.727C13.287 84.5579 22.5532 77.8004 33.7291 79.3711C44.905 80.9417 51.9354 90.0923 50.4701 100.154C49.0338 110.373 39.7897 117.339 28.6138 115.768ZM23.4365 96.3542C22.7643 101.137 25.7214 105.3 30.0005 105.901C34.2796 106.503 38.2696 103.316 38.8914 98.5263C39.5565 93.7942 36.5711 89.8324 32.3423 89.2381C28.0633 88.6367 24.0944 91.6724 23.4365 96.3542ZM66.2266 121.054C55.0507 119.484 48.0557 110.081 49.4707 100.013C50.8999 89.844 60.166 83.0865 71.3419 84.6572C82.5178 86.2279 89.5483 95.3784 88.0829 105.44C86.6467 115.659 77.4025 122.625 66.2266 121.054ZM61.0493 101.64C60.3772 106.423 63.3343 110.586 67.6134 111.187C71.8924 111.789 75.8825 108.602 76.5043 103.812C77.1693 99.0803 74.1839 95.1185 69.9552 94.5242C65.6762 93.9228 61.7073 96.9586 61.0493 101.64ZM86.1034 123.232L91.056 87.9925L102.635 89.6198L112.166 107.644L114.465 91.2824L126.044 92.9097L121.091 128.149L109.512 126.522L100.003 108.347L97.682 124.859L86.1034 123.232ZM122.898 122.756C123.358 119.484 126.508 117.154 130.039 117.599C133.412 118.073 135.879 121.346 135.483 124.525C135.03 127.747 131.614 130.141 128.291 129.674C124.818 129.186 122.438 126.028 122.898 122.756ZM135.487 124.525C135.947 121.253 139.098 118.924 142.629 119.369C146.002 119.843 148.468 123.115 148.073 126.294C147.62 129.516 144.203 131.911 140.881 131.444C137.407 130.955 135.027 127.798 135.487 124.525ZM148.077 126.295C148.536 123.022 151.687 120.693 155.218 121.138C158.591 121.612 161.057 124.885 160.662 128.063C160.209 131.285 156.793 133.68 153.47 133.213C149.996 132.725 147.617 129.567 148.077 126.295Z" fill="#E5F6FF" fill-opacity="0.25"/>
<path d="M24.2932 39.2933L24.6543 39.9734L25.2874 39.6373L24.9974 38.9818L24.2932 39.2933ZM15.8056 43.7988L15.1117 44.1326L15.459 44.8545L16.1666 44.4789L15.8056 43.7988ZM8.93596 38.9831L9.0523 38.2219L9.05178 38.2218L8.93596 38.9831ZM14.6635 53.7515L15.1818 53.1821L14.5558 52.6122L14.0476 53.2893L14.6635 53.7515ZM21.3995 59.8831L22.0365 60.3158L22.4118 59.7633L21.9179 59.3137L21.3995 59.8831ZM4.6035 65.0615C-5.68308 63.6158 -13.0255 55.7653 -11.5396 45.192L-13.0646 44.9776C-14.6916 56.5547 -6.56853 65.0465 4.38918 66.5865L4.6035 65.0615ZM-11.5396 45.192C-10.0671 34.7148 -0.661447 29.0173 9.46909 30.441L9.68342 28.916C-1.12827 27.3966 -11.4523 33.5057 -13.0646 44.9776L-11.5396 45.192ZM9.46909 30.441C17.3389 31.5471 21.9157 35.8225 23.5891 39.6048L24.9974 38.9818C23.0865 34.6626 18.0237 30.0882 9.68342 28.916L9.46909 30.441ZM23.9322 38.6132L15.4446 43.1186L16.1666 44.4789L24.6543 39.9734L23.9322 38.6132ZM16.4995 43.465C15.5433 41.4772 13.5326 38.9067 9.0523 38.2219L8.81962 39.7442C12.6819 40.3346 14.3198 42.4864 15.1117 44.1326L16.4995 43.465ZM9.05178 38.2218C4.19388 37.4827 -0.663737 40.7547 -1.48594 46.6049L0.0390775 46.8192C0.7451 41.7956 4.83202 39.1375 8.82014 39.7443L9.05178 38.2218ZM-1.48594 46.6049C-2.2955 52.3652 1.35327 56.6627 6.25183 57.3511L6.46616 55.8261C2.40386 55.2552 -0.651278 51.7314 0.0390775 46.8192L-1.48594 46.6049ZM6.25183 57.3511C8.94727 57.7299 10.9279 57.3459 12.3925 56.6392C13.853 55.9344 14.7341 54.9403 15.2794 54.2137L14.0476 53.2893C13.5823 53.9094 12.8786 54.6947 11.7232 55.2522C10.5719 55.8078 8.90559 56.1689 6.46616 55.8261L6.25183 57.3511ZM14.1452 54.3209L20.8812 60.4526L21.9179 59.3137L15.1818 53.1821L14.1452 54.3209ZM20.7626 59.4505C18.9787 62.0766 13.5134 66.3137 4.6035 65.0615L4.38918 66.5865C13.9045 67.9238 19.9367 63.4069 22.0365 60.3158L20.7626 59.4505ZM58.1502 54.7809L57.3883 54.6699L57.3877 54.6737L58.1502 54.7809ZM46.5716 53.1536L45.809 53.0464L45.808 53.0545L46.5716 53.1536ZM36.4011 69.6331C25.622 68.1182 18.948 59.0848 20.3005 49.4614L18.7755 49.2471C17.2979 59.7605 24.6141 69.5316 36.1868 71.1581L36.4011 69.6331ZM20.3005 49.4614C21.6649 39.7535 30.5061 33.2436 41.3021 34.7609L41.5164 33.2359C29.9606 31.6118 20.2695 38.6169 18.7755 49.2471L20.3005 49.4614ZM41.3021 34.7609C52.0961 36.2779 58.7864 45.0705 57.3883 54.6699L58.9122 54.8918C60.4448 44.3686 53.0742 34.8602 41.5164 33.2359L41.3021 34.7609ZM57.3877 54.6737C56.0142 64.4467 47.1817 71.1482 36.4011 69.6331L36.1868 71.1581C47.758 72.7843 57.4138 65.5539 58.9127 54.888L57.3877 54.6737ZM30.3541 50.8744C29.6308 56.0212 32.8187 60.6228 37.5735 61.2911L37.7878 59.766C33.9845 59.2315 31.2582 55.5069 31.8791 51.0887L30.3541 50.8744ZM37.5735 61.2911C42.3276 61.9592 46.6651 58.4145 47.3352 53.2527L45.808 53.0545C45.2345 57.4718 41.5919 60.3007 37.7878 59.766L37.5735 61.2911ZM47.3341 53.2608C48.0538 48.1395 44.8108 43.7608 40.1297 43.1029L39.9154 44.6279C43.6916 45.1586 46.4195 48.7034 45.8091 53.0464L47.3341 53.2608ZM40.1297 43.1029C35.3983 42.4379 31.0668 45.8033 30.3541 50.8744L31.8791 51.0887C32.4824 46.7962 36.0886 44.0901 39.9154 44.6279L40.1297 43.1029ZM56.1707 72.573L55.4082 72.4659L55.301 73.2284L56.0635 73.3355L56.1707 72.573ZM61.1233 37.3337L61.2304 36.5712L60.4679 36.464L60.3607 37.2265L61.1233 37.3337ZM72.7019 38.961L73.3927 38.6208L73.2126 38.2552L72.8091 38.1985L72.7019 38.961ZM80.1702 54.128L79.4794 54.4682L79.9756 55.476L80.7366 54.6496L80.1702 54.128ZM91.6808 41.6283L91.788 40.8658L91.388 40.8095L91.1144 41.1067L91.6808 41.6283ZM103.259 43.2555L104.022 43.3627L104.129 42.6002L103.367 42.493L103.259 43.2555ZM98.3069 78.4949L98.1997 79.2574L98.9622 79.3645L99.0694 78.602L98.3069 78.4949ZM86.7282 76.8676L85.9657 76.7604L85.8586 77.5229L86.6211 77.6301L86.7282 76.8676ZM89.0772 60.1541L89.8397 60.2613L90.1936 57.7429L88.5022 59.642L89.0772 60.1541ZM77.4958 73.1573L76.8 73.4871L77.2978 74.5373L78.0708 73.6694L77.4958 73.1573ZM70.0912 57.5371L70.787 57.2073L69.6863 54.8854L69.3287 57.43L70.0912 57.5371ZM67.7493 74.2003L67.6422 74.9628L68.4047 75.07L68.5118 74.3075L67.7493 74.2003ZM56.9332 72.6802L61.8858 37.4408L60.3607 37.2265L55.4082 72.4659L56.9332 72.6802ZM61.0161 38.0962L72.5947 39.7235L72.8091 38.1985L61.2304 36.5712L61.0161 38.0962ZM72.0111 39.3011L79.4794 54.4682L80.861 53.7879L73.3927 38.6208L72.0111 39.3011ZM80.7366 54.6496L92.2472 42.1499L91.1144 41.1067L79.6038 53.6064L80.7366 54.6496ZM91.5736 42.3908L103.152 44.018L103.367 42.493L91.788 40.8658L91.5736 42.3908ZM102.497 43.1484L97.5444 78.3877L99.0694 78.602L104.022 43.3627L102.497 43.1484ZM98.414 77.7324L86.8354 76.1051L86.6211 77.6301L98.1997 79.2574L98.414 77.7324ZM87.4907 76.9748L89.8397 60.2613L88.3146 60.0469L85.9657 76.7604L87.4907 76.9748ZM88.5022 59.642L76.9208 72.6451L78.0708 73.6694L89.6522 60.6662L88.5022 59.642ZM78.1916 72.8274L70.787 57.2073L69.3954 57.867L76.8 73.4871L78.1916 72.8274ZM69.3287 57.43L66.9868 74.0931L68.5118 74.3075L70.8537 57.6443L69.3287 57.43ZM67.8565 73.4378L56.2779 71.8105L56.0635 73.3355L67.6422 74.9628L67.8565 73.4378ZM117.105 45.2014L117.868 45.3086L117.975 44.5461L117.212 44.4389L117.105 45.2014ZM112.152 80.4407L112.045 81.2033L112.808 81.3104L112.915 80.5479L112.152 80.4407ZM100.574 78.8135L99.8113 78.7063L99.7041 79.4688L100.467 79.576L100.574 78.8135ZM105.526 43.5741L105.634 42.8116L104.871 42.7045L104.764 43.467L105.526 43.5741ZM116.343 45.0942L111.39 80.3336L112.915 80.5479L117.868 45.3086L116.343 45.0942ZM112.26 79.6782L100.681 78.051L100.467 79.576L112.045 81.2033L112.26 79.6782ZM101.336 78.9206L106.289 43.6813L104.764 43.467L99.8113 78.7063L101.336 78.9206ZM105.419 44.3366L116.998 45.9639L117.212 44.4389L105.634 42.8116L105.419 44.3366ZM114.436 80.7616L113.673 80.6544L113.566 81.417L114.328 81.5241L114.436 80.7616ZM119.388 45.5223L119.495 44.7598L118.733 44.6526L118.626 45.4151L119.388 45.5223ZM130.967 47.1495L131.647 46.7896L131.464 46.4418L131.074 46.387L130.967 47.1495ZM140.498 65.1733L139.817 65.5333L140.929 67.6363L141.26 65.2805L140.498 65.1733ZM142.797 48.8122L142.904 48.0497L142.142 47.9425L142.035 48.705L142.797 48.8122ZM154.376 50.4395L155.138 50.5466L155.245 49.7841L154.483 49.677L154.376 50.4395ZM149.423 85.6788L149.316 86.4413L150.079 86.5485L150.186 85.786L149.423 85.6788ZM137.845 84.0515L137.162 84.4085L137.346 84.759L137.737 84.814L137.845 84.0515ZM128.335 65.8767L129.017 65.5198L127.906 63.3961L127.572 65.7696L128.335 65.8767ZM126.014 82.3889L125.907 83.1514L126.67 83.2586L126.777 82.496L126.014 82.3889ZM115.198 80.8688L120.151 45.6294L118.626 45.4151L113.673 80.6544L115.198 80.8688ZM119.281 46.2848L130.86 47.9121L131.074 46.387L119.495 44.7598L119.281 46.2848ZM130.286 47.5095L139.817 65.5333L141.178 64.8134L131.647 46.7896L130.286 47.5095ZM141.26 65.2805L143.56 48.9194L142.035 48.705L139.735 65.0662L141.26 65.2805ZM142.69 49.5747L154.269 51.202L154.483 49.677L142.904 48.0497L142.69 49.5747ZM153.613 50.3323L148.661 85.5716L150.186 85.786L155.138 50.5466L153.613 50.3323ZM149.53 84.9163L137.952 83.289L137.737 84.814L149.316 86.4413L149.53 84.9163ZM138.527 83.6946L129.017 65.5198L127.653 66.2337L137.162 84.4085L138.527 83.6946ZM127.572 65.7696L125.252 82.2817L126.777 82.496L129.097 65.9839L127.572 65.7696ZM126.121 81.6264L114.543 79.9991L114.328 81.5241L125.907 83.1514L126.121 81.6264ZM188.67 60.4442L189.145 61.0505L189.72 60.6003L189.301 60.0023L188.67 60.4442ZM181.056 66.4072L180.433 66.8601L180.903 67.5053L181.531 67.0134L181.056 66.4072ZM173.677 61.9305L173.793 61.1694L173.792 61.1692L173.677 61.9305ZM175.378 79.778L175.538 80.5312L176.065 80.4192L176.14 79.8851L175.378 79.778ZM175.81 76.7071L176.572 76.8143L176.679 76.0518L175.917 75.9446L175.81 76.7071ZM168.107 75.6246L167.345 75.5175L167.238 76.28L168 76.3871L168.107 75.6246ZM169.268 67.3685L169.375 66.606L168.612 66.4989L168.505 67.2614L169.268 67.3685ZM187.34 69.9085L188.103 70.0157L188.21 69.2532L187.447 69.146L187.34 69.9085ZM185.338 84.1553L185.911 84.6699L186.068 84.4951L186.101 84.2624L185.338 84.1553ZM169.295 88.3614C159.017 86.917 151.686 78.9222 153.173 68.3408L151.648 68.1264C150.022 79.6954 158.114 88.3451 169.08 89.8864L169.295 88.3614ZM153.173 68.3408C154.647 57.8529 164.091 51.9664 174.21 53.3885L174.424 51.8635C163.601 50.3423 153.259 56.6652 151.648 68.1264L153.173 68.3408ZM174.21 53.3885C182.107 54.4983 185.77 57.6468 188.04 60.8862L189.301 60.0023C186.782 56.4082 182.737 53.0318 174.424 51.8635L174.21 53.3885ZM188.196 59.838L180.581 65.8009L181.531 67.0134L189.145 61.0505L188.196 59.838ZM181.679 65.9542C180.359 64.1391 178.236 61.8485 173.793 61.1694L173.56 62.6917C177.46 63.2877 179.258 65.2443 180.433 66.8601L181.679 65.9542ZM173.792 61.1692C168.486 60.3671 164.042 63.951 163.226 69.7537L164.751 69.968C165.464 64.8969 169.216 62.0349 173.562 62.6919L173.792 61.1692ZM163.226 69.7537C162.828 72.5925 163.429 75.1364 164.82 77.0729C166.212 79.0111 168.358 80.2876 170.943 80.651L171.157 79.1259C168.96 78.8171 167.201 77.748 166.07 76.1745C164.939 74.5993 164.401 72.4655 164.751 69.968L163.226 69.7537ZM170.943 80.651C172.798 80.9116 174.29 80.7961 175.538 80.5312L175.218 79.0247C174.138 79.254 172.826 79.3605 171.157 79.1259L170.943 80.651ZM176.14 79.8851L176.572 76.8143L175.047 76.5999L174.615 79.6708L176.14 79.8851ZM175.917 75.9446L168.214 74.8621L168 76.3871L175.702 77.4696L175.917 75.9446ZM168.87 75.7318L170.03 67.4757L168.505 67.2614L167.345 75.5175L168.87 75.7318ZM169.16 68.1311L187.233 70.671L187.447 69.146L169.375 66.606L169.16 68.1311ZM186.578 69.8013L184.576 84.0481L186.101 84.2624L188.103 70.0157L186.578 69.8013ZM184.765 83.6406C182.781 85.8483 177.362 89.4952 169.295 88.3614L169.08 89.8864C177.726 91.1015 183.635 87.2026 185.911 84.6699L184.765 83.6406ZM-21.1389 104.31L-21.7463 103.836L-22.1991 104.417L-21.6387 104.895L-21.1389 104.31ZM-15.1891 96.6754L-14.6955 96.0844L-15.3068 95.5739L-15.7964 96.2021L-15.1891 96.6754ZM0.766312 100.766L1.52888 100.873L1.53013 100.863L0.766312 100.766ZM14.6046 81.2009L15.2033 81.6851L15.6757 81.101L15.1035 80.6143L14.6046 81.2009ZM8.82619 88.3459L8.30228 88.9102L8.90646 89.4711L9.4249 88.8301L8.82619 88.3459ZM12.4935 101.336L11.7319 101.223L11.7318 101.223L12.4935 101.336ZM-20.5316 104.783L-14.5817 97.1488L-15.7964 96.2021L-21.7463 103.836L-20.5316 104.783ZM-15.6826 97.2664C-13.9271 98.7325 -10.3384 101.626 -3.39324 102.602L-3.17891 101.077C-9.72539 100.157 -13.0512 97.4576 -14.6955 96.0844L-15.6826 97.2664ZM-3.39324 102.602C-2.2153 102.767 -1.13009 102.819 -0.286214 102.629C0.143146 102.532 0.561337 102.362 0.896698 102.066C1.2469 101.757 1.46186 101.349 1.52882 100.873L0.00380503 100.659C-0.0141406 100.786 -0.0587128 100.856 -0.122419 100.912C-0.200967 100.981 -0.351061 101.065 -0.624107 101.126C-1.18504 101.253 -2.04113 101.237 -3.17891 101.077L-3.39324 102.602ZM1.53013 100.863C1.64263 99.9809 1.12482 99.2949 0.531061 98.7973C-0.0711846 98.2926 -0.918005 97.836 -1.85922 97.397C-2.80965 96.9536 -3.92376 96.4984 -5.08508 96.0155C-6.25446 95.5293 -7.48499 95.0098 -8.70223 94.4267C-11.1484 93.2549 -13.4708 91.8579 -15.0745 90.0436C-16.6514 88.2596 -17.5409 86.0672 -17.139 83.208L-18.6641 82.9936C-19.136 86.3517 -18.0662 88.9843 -16.2284 91.0635C-14.4172 93.1125 -11.8694 94.6171 -9.36753 95.8156C-8.11073 96.4176 -6.84774 96.9504 -5.67633 97.4375C-4.49686 97.9279 -3.42291 98.3669 -2.51021 98.7926C-1.58829 99.2226 -0.896912 99.6099 -0.458083 99.9776C-0.0107621 100.352 0.0153713 100.568 0.00249338 100.669L1.53013 100.863ZM-17.139 83.208C-16.7755 80.6212 -15.3443 78.3418 -12.7738 76.8628C-10.1869 75.3744 -6.38503 74.665 -1.26227 75.3849L-1.04795 73.8599C-6.3963 73.1082 -10.5715 73.8189 -13.5419 75.528C-16.5287 77.2465 -18.2352 79.9421 -18.6641 82.9936L-17.139 83.208ZM-1.26227 75.3849C8.26017 76.7232 12.2921 80.2449 14.1058 81.7874L15.1035 80.6143C13.157 78.9589 8.86159 75.2526 -1.04795 73.8599L-1.26227 75.3849ZM14.0059 80.7167L8.22748 87.8617L9.4249 88.8301L15.2033 81.6851L14.0059 80.7167ZM9.3501 87.7816C7.7244 86.2722 4.08928 83.9764 -2.34269 83.0725L-2.55701 84.5975C3.5965 85.4623 6.93087 87.6369 8.30228 88.9102L9.3501 87.7816ZM-2.34269 83.0725C-3.814 82.8657 -4.88122 82.8835 -5.62876 83.0931C-6.40907 83.3119 -6.96897 83.7924 -7.07127 84.5202L-5.54626 84.7346C-5.54591 84.7321 -5.54604 84.7343 -5.54778 84.7377C-5.54959 84.7413 -5.54849 84.737 -5.53678 84.7258C-5.51143 84.7014 -5.42631 84.6358 -5.21299 84.5759C-4.77144 84.4521 -3.95519 84.401 -2.55701 84.5975L-2.34269 83.0725ZM-7.07127 84.5202C-7.19467 85.3983 -6.57308 86.0264 -6.00772 86.4293C-5.40205 86.8609 -4.55257 87.2581 -3.60731 87.6476C-1.63764 88.4592 0.78013 89.2593 3.278 90.3853C5.74065 91.4954 8.07599 92.8418 9.68359 94.5998C11.2629 96.3268 12.1448 98.4519 11.7319 101.223L13.2551 101.449C13.7451 98.161 12.6698 95.5833 10.82 93.5605C8.99854 91.5687 6.4329 90.1183 3.91089 88.9814C1.42409 87.8603 -1.22649 86.963 -3.02061 86.2238C-3.95726 85.8378 -4.66355 85.4962 -5.11398 85.1752C-5.33765 85.0158 -5.4559 84.8906 -5.51165 84.8059C-5.5372 84.7671 -5.54408 84.7452 -5.54569 84.739C-5.54674 84.735 -5.5464 84.7356 -5.54626 84.7346L-7.07127 84.5202ZM11.7318 101.223C11.2678 104.355 9.52061 106.916 6.6849 108.543C3.83409 110.179 -0.165198 110.895 -5.1281 110.197L-5.34243 111.722C-0.136262 112.454 4.22964 111.727 7.45136 109.879C10.6882 108.021 12.7208 105.056 13.2552 101.449L11.7318 101.223ZM-5.1281 110.197C-14.2492 108.915 -19.195 104.956 -20.6392 103.724L-21.6387 104.895C-20.0575 106.245 -14.8479 110.386 -5.34243 111.722L-5.1281 110.197ZM50.4701 100.154L49.7081 100.043L49.7075 100.046L50.4701 100.154ZM38.8914 98.5263L38.1289 98.4191L38.1278 98.4272L38.8914 98.5263ZM28.7209 115.006C17.9419 113.491 11.2678 104.457 12.6203 94.8341L11.0953 94.6198C9.61775 105.133 16.9339 114.904 28.5066 116.531L28.7209 115.006ZM12.6203 94.8341C13.9847 85.1262 22.8259 78.6163 33.6219 80.1336L33.8362 78.6086C22.2804 76.9845 12.5893 83.9896 11.0953 94.6198L12.6203 94.8341ZM33.6219 80.1336C44.416 81.6506 51.1062 90.4432 49.7081 100.043L51.232 100.265C52.7647 89.7413 45.394 80.2329 33.8362 78.6086L33.6219 80.1336ZM49.7075 100.046C48.334 109.819 39.5015 116.521 28.7209 115.006L28.5066 116.531C40.0779 118.157 49.7336 110.927 51.2326 100.261L49.7075 100.046ZM22.6739 96.2471C21.9506 101.394 25.1385 105.996 29.8933 106.664L30.1077 105.139C26.3044 104.604 23.578 100.88 24.199 96.4614L22.6739 96.2471ZM29.8933 106.664C34.6474 107.332 38.9849 103.787 39.655 98.6254L38.1278 98.4272C37.5544 102.845 33.9117 105.673 30.1077 105.139L29.8933 106.664ZM39.6539 98.6335C40.3737 93.5122 37.1307 89.1335 32.4495 88.4756L32.2352 90.0006C36.0115 90.5313 38.7393 94.0761 38.1289 98.4191L39.6539 98.6335ZM32.4495 88.4756C27.7181 87.8106 23.3866 91.176 22.6739 96.2471L24.199 96.4614C24.8022 92.1689 28.4084 89.4628 32.2352 90.0006L32.4495 88.4756ZM88.0829 105.44L87.321 105.329L87.3204 105.333L88.0829 105.44ZM76.5043 103.812L75.7417 103.705L75.7407 103.713L76.5043 103.812ZM66.3338 120.292C55.5547 118.777 48.8807 109.744 50.2332 100.12L48.7082 99.9059C47.2306 110.419 54.5467 120.19 66.1195 121.817L66.3338 120.292ZM50.2332 100.12C51.5975 90.4124 60.4388 83.9024 71.2348 85.4197L71.4491 83.8947C59.8932 82.2706 50.2022 89.2757 48.7082 99.9059L50.2332 100.12ZM71.2348 85.4197C82.0288 86.9367 88.7191 95.7293 87.321 105.329L88.8449 105.551C90.3775 95.0274 83.0068 85.519 71.4491 83.8947L71.2348 85.4197ZM87.3204 105.333C85.9469 115.106 77.1144 121.807 66.3338 120.292L66.1195 121.817C77.6907 123.443 87.3464 116.213 88.8454 105.547L87.3204 105.333ZM60.2868 101.533C59.5635 106.68 62.7514 111.282 67.5062 111.95L67.7205 110.425C63.9172 109.89 61.1909 106.166 61.8118 101.748L60.2868 101.533ZM67.5062 111.95C72.2603 112.618 76.5978 109.073 77.2679 103.912L75.7407 103.713C75.1672 108.131 71.5246 110.96 67.7205 110.425L67.5062 111.95ZM77.2668 103.92C77.9865 98.7983 74.7435 94.4196 70.0624 93.7617L69.8481 95.2867C73.6243 95.8174 76.3522 99.3622 75.7418 103.705L77.2668 103.92ZM70.0624 93.7617C65.331 93.0968 60.9995 96.4622 60.2868 101.533L61.8118 101.748C62.4151 97.455 66.0213 94.7489 69.8481 95.2867L70.0624 93.7617ZM86.1034 123.232L85.3409 123.125L85.2337 123.887L85.9962 123.994L86.1034 123.232ZM91.056 87.9925L91.1631 87.23L90.4006 87.1229L90.2934 87.8854L91.056 87.9925ZM102.635 89.6198L103.315 89.2598L103.131 88.912L102.742 88.8573L102.635 89.6198ZM112.166 107.644L111.485 108.004L112.597 110.107L112.928 107.751L112.166 107.644ZM114.465 91.2824L114.572 90.5199L113.81 90.4128L113.702 91.1753L114.465 91.2824ZM126.044 92.9097L126.806 93.0169L126.913 92.2544L126.151 92.1472L126.044 92.9097ZM121.091 128.149L120.984 128.912L121.746 129.019L121.854 128.256L121.091 128.149ZM109.512 126.522L108.83 126.879L109.014 127.229L109.405 127.284L109.512 126.522ZM100.003 108.347L100.685 107.99L99.5737 105.866L99.2401 108.24L100.003 108.347ZM97.682 124.859L97.5749 125.622L98.3374 125.729L98.4445 124.966L97.682 124.859ZM86.8659 123.339L91.8185 88.0997L90.2934 87.8854L85.3409 123.125L86.8659 123.339ZM90.9488 88.755L102.527 90.3823L102.742 88.8573L91.1631 87.23L90.9488 88.755ZM101.954 89.9797L111.485 108.004L112.846 107.284L103.315 89.2598L101.954 89.9797ZM112.928 107.751L115.227 91.3896L113.702 91.1753L111.403 107.536L112.928 107.751ZM114.358 92.0449L125.936 93.6722L126.151 92.1472L114.572 90.5199L114.358 92.0449ZM125.281 92.8025L120.329 128.042L121.854 128.256L126.806 93.0169L125.281 92.8025ZM121.198 127.387L109.62 125.759L109.405 127.284L120.984 128.912L121.198 127.387ZM110.195 126.165L100.685 107.99L99.3204 108.704L108.83 126.879L110.195 126.165ZM99.2401 108.24L96.9195 124.752L98.4445 124.966L100.765 108.454L99.2401 108.24ZM97.7892 124.097L86.2106 122.469L85.9962 123.994L97.5749 125.622L97.7892 124.097ZM130.039 117.599L130.147 116.837L130.136 116.835L130.039 117.599ZM135.483 124.525L136.246 124.632L136.247 124.62L135.483 124.525ZM123.66 122.863C124.057 120.042 126.795 117.967 129.943 118.363L130.136 116.835C126.222 116.342 122.658 118.926 122.135 122.649L123.66 122.863ZM129.932 118.362C132.897 118.779 135.062 121.677 134.719 124.43L136.247 124.62C136.696 121.015 133.927 117.368 130.147 116.837L129.932 118.362ZM134.721 124.418C134.333 127.179 131.34 129.325 128.398 128.912L128.184 130.437C131.887 130.957 135.728 128.314 136.246 124.632L134.721 124.418ZM128.398 128.912C125.329 128.481 123.262 125.698 123.66 122.863L122.135 122.649C121.614 126.358 124.306 129.892 128.184 130.437L128.398 128.912ZM142.629 119.369L142.736 118.606L142.725 118.605L142.629 119.369ZM148.073 126.294L148.835 126.401L148.837 126.389L148.073 126.294ZM136.25 124.632C136.646 121.811 139.384 119.736 142.533 120.133L142.725 118.605C138.811 118.112 135.248 120.695 134.725 124.418L136.25 124.632ZM142.522 120.131C145.487 120.548 147.651 123.446 147.309 126.199L148.837 126.389C149.285 122.785 146.517 119.138 142.736 118.606L142.522 120.131ZM147.31 126.187C146.922 128.949 143.929 131.095 140.988 130.681L140.773 132.206C144.477 132.727 148.318 130.083 148.835 126.401L147.31 126.187ZM140.988 130.681C137.919 130.25 135.851 127.467 136.25 124.632L134.725 124.418C134.203 128.128 136.895 131.661 140.773 132.206L140.988 130.681ZM155.218 121.138L155.325 120.375L155.315 120.374L155.218 121.138ZM160.662 128.063L161.425 128.171L161.426 128.158L160.662 128.063ZM148.839 126.402C149.236 123.58 151.974 121.505 155.122 121.902L155.315 120.374C151.401 119.881 147.837 122.464 147.314 126.187L148.839 126.402ZM155.111 121.9C158.076 122.317 160.24 125.216 159.898 127.968L161.426 128.158C161.874 124.554 159.106 120.907 155.325 120.375L155.111 121.9ZM159.9 127.956C159.511 130.718 156.519 132.864 153.577 132.45L153.363 133.975C157.066 134.496 160.907 131.853 161.425 128.171L159.9 127.956ZM153.577 132.45C150.508 132.019 148.441 129.237 148.839 126.402L147.314 126.187C146.793 129.897 149.484 133.43 153.363 133.975L153.577 132.45Z" fill="url(#paint0_linear_526_1540)" mask="url(#path-1-inside-1_526_1540)"/>
</svg>



