<svg width="21" height="20" viewBox="0 0 21 20" fill="none" xmlns="http://www.w3.org/2000/svg">
<path d="M17.5585 1.66668H3.4418C3.28311 1.66448 3.12555 1.69355 2.9781 1.75225C2.83066 1.81095 2.69622 1.89812 2.58246 2.00877C2.46871 2.11943 2.37786 2.25142 2.31512 2.39719C2.25238 2.54296 2.21897 2.69966 2.2168 2.85835V17.1417C2.21897 17.3004 2.25238 17.4571 2.31512 17.6028C2.37786 17.7486 2.46871 17.8806 2.58246 17.9913C2.69622 18.1019 2.83066 18.1891 2.9781 18.2478C3.12555 18.3065 3.28311 18.3356 3.4418 18.3333H17.5585C17.7171 18.3356 17.8747 18.3065 18.0222 18.2478C18.1696 18.1891 18.304 18.1019 18.4178 17.9913C18.5316 17.8806 18.6224 17.7486 18.6851 17.6028C18.7479 17.4571 18.7813 17.3004 18.7835 17.1417V2.85835C18.7813 2.69966 18.7479 2.54296 18.6851 2.39719C18.6224 2.25142 18.5316 2.11943 18.4178 2.00877C18.304 1.89812 18.1696 1.81095 18.0222 1.75225C17.8747 1.69355 17.7171 1.66448 17.5585 1.66668ZM7.2418 15.6167H4.7418V8.11668H7.2418V15.6167ZM5.9918 7.06668C5.64702 7.06668 5.31636 6.92972 5.07256 6.68592C4.82876 6.44212 4.6918 6.11146 4.6918 5.76668C4.6918 5.4219 4.82876 5.09124 5.07256 4.84744C5.31636 4.60365 5.64702 4.46668 5.9918 4.46668C6.17488 4.44592 6.36028 4.46406 6.53586 4.51992C6.71144 4.57577 6.87325 4.66809 7.01068 4.79082C7.14811 4.91354 7.25807 5.06391 7.33336 5.23208C7.40864 5.40025 7.44756 5.58243 7.44756 5.76668C7.44756 5.95093 7.40864 6.13311 7.33336 6.30128C7.25807 6.46945 7.14811 6.61982 7.01068 6.74255C6.87325 6.86527 6.71144 6.95759 6.53586 7.01344C6.36028 7.0693 6.17488 7.08744 5.9918 7.06668ZM16.2585 15.6167H13.7585V11.5917C13.7585 10.5833 13.4001 9.92501 12.4918 9.92501C12.2107 9.92707 11.937 10.0152 11.7075 10.1777C11.478 10.3401 11.3039 10.5689 11.2085 10.8333C11.1433 11.0292 11.115 11.2355 11.1251 11.4417V15.6083H8.62513V8.10835H11.1251V9.16668C11.3522 8.7726 11.6826 8.44795 12.0805 8.22768C12.4784 8.00742 12.9289 7.89989 13.3835 7.91668C15.0501 7.91668 16.2585 8.99168 16.2585 11.3V15.6167Z" fill="#D0EFFF"/>
</svg>
